<?xml version="1.0" encoding="UTF-8"?>
<svg xmlns="http://www.w3.org/2000/svg" xmlns:xlink="http://www.w3.org/1999/xlink" width="648" height="360" viewBox="0 0 648 360">
<rect x="-64.8" y="-36" width="777.6" height="432" fill="rgb(100%, 100%, 100%)" fill-opacity="1"/>
<path fill-rule="nonzero" fill="rgb(89.803922%, 89.803922%, 89.803922%)" fill-opacity="1" stroke-width="1.066978" stroke-linecap="butt" stroke-linejoin="round" stroke="rgb(0%, 0%, 0%)" stroke-opacity="1" stroke-miterlimit="10" d="M 432.421875 200.75 L 426.191406 201.894531 L 419.957031 203.035156 L 413.71875 204.164062 L 407.480469 205.289062 L 406.558594 204.894531 L 407.722656 201.195312 L 408.894531 198.308594 L 408.523438 194.222656 L 409.71875 192.566406 L 410.589844 190.097656 L 411.746094 186.398438 L 412.019531 184.347656 L 411.375 182.316406 L 417.636719 180.980469 L 423.890625 179.640625 L 430.144531 178.292969 L 431.949219 177.4375 L 433.433594 175.773438 L 434.039062 175.757812 L 435.261719 176.144531 L 435.902344 177.765625 L 437.726562 177.726562 L 435.433594 184.320312 L 434.566406 186.382812 L 434.3125 188.84375 L 433.433594 190.496094 L 433.753906 191.308594 L 433.492188 193.359375 L 432.941406 196.234375 Z M 432.421875 200.75 "/>
<path fill-rule="nonzero" fill="rgb(89.803922%, 89.803922%, 89.803922%)" fill-opacity="1" stroke-width="1.066978" stroke-linecap="butt" stroke-linejoin="round" stroke="rgb(0%, 0%, 0%)" stroke-opacity="1" stroke-miterlimit="10" d="M 196.175781 233.902344 L 190.664062 233.359375 L 191.070312 221.078125 L 191.273438 214.941406 L 191.476562 208.800781 L 191.679688 202.664062 L 191.882812 196.53125 L 198.585938 196.691406 L 205.292969 196.847656 L 205.585938 197.261719 L 216.253906 197.488281 L 216.1875 200.761719 L 222.285156 200.882812 L 222.214844 204.5625 L 221.910156 204.558594 L 221.554688 210.445312 L 221.195312 216.335938 L 220.839844 222.226562 L 220.480469 228.117188 L 220.121094 234.011719 L 214.132812 233.996094 L 208.148438 233.972656 L 202.164062 233.941406 Z M 196.175781 233.902344 "/>
<path fill-rule="nonzero" fill="rgb(89.803922%, 89.803922%, 89.803922%)" fill-opacity="1" stroke-width="1.066978" stroke-linecap="butt" stroke-linejoin="round" stroke="rgb(0%, 0%, 0%)" stroke-opacity="1" stroke-miterlimit="10" d="M 427.535156 312.789062 L 427.839844 312.375 L 433.476562 313.90625 L 432.566406 315.15625 L 432.894531 315.972656 L 432.941406 318.433594 L 433.269531 319.25 L 428.914062 319.746094 Z M 427.535156 312.789062 "/>
<path fill-rule="nonzero" fill="rgb(89.803922%, 89.803922%, 89.803922%)" fill-opacity="1" stroke-width="1.066978" stroke-linecap="butt" stroke-linejoin="round" stroke="rgb(0%, 0%, 0%)" stroke-opacity="1" stroke-miterlimit="10" d="M 342.566406 234.984375 L 335.816406 235.003906 L 329.0625 235.011719 L 322.3125 235.015625 L 315.558594 235.007812 L 308.808594 234.992188 L 308.824219 228.847656 L 308.828125 228.441406 L 308.539062 221.886719 L 309.765625 221.890625 L 310.074219 220.253906 L 310.6875 220.253906 L 310.6875 219.027344 L 310.382812 218.617188 L 310.386719 217.796875 L 309.777344 217.386719 L 310.082031 216.976562 L 310.390625 215.75 L 309.476562 215.335938 L 309.476562 214.929688 L 308.867188 214.515625 L 308.867188 214.109375 L 309.785156 214.109375 L 309.480469 212.882812 L 309.179688 212.472656 L 308.871094 212.0625 L 308.570312 211.652344 L 308.265625 210.832031 L 309.183594 210.425781 L 308.878906 209.605469 L 308.269531 209.601562 L 308.277344 207.148438 L 307.667969 207.144531 L 307.667969 205.917969 L 314.84375 205.730469 L 322.015625 205.53125 L 322.625 211.46875 L 323.234375 217.402344 L 333.636719 217.804688 L 333.949219 221.082031 L 345.582031 221.046875 L 345.59375 224.320312 L 345.613281 229.648438 L 345.933594 232.101562 L 346.558594 234.96875 Z M 342.566406 234.984375 "/>
<path fill-rule="nonzero" fill="rgb(89.803922%, 89.803922%, 89.803922%)" fill-opacity="1" stroke-width="1.066978" stroke-linecap="butt" stroke-linejoin="round" stroke="rgb(0%, 0%, 0%)" stroke-opacity="1" stroke-miterlimit="10" d="M 157.839844 232.445312 L 150.476562 232.210938 L 150.734375 225.800781 L 150.992188 219.386719 L 151.25 212.976562 L 152.023438 193.757812 L 154.433594 194.652344 L 157.074219 198.011719 L 158.496094 201.332031 L 159.71875 201.367188 L 160.300781 202.207031 L 161.828125 202.25 L 164.316406 200.6875 L 165.535156 200.726562 L 167.71875 199.152344 L 170.179688 198.40625 L 170.484375 198.414062 L 171.375 199.257812 L 172.628906 198.066406 L 174.167969 197.699219 L 175.710938 196.925781 L 178.152344 196.992188 L 183.070312 195.488281 L 183.363281 195.902344 L 191.882812 196.53125 L 191.679688 202.664062 L 191.476562 208.800781 L 191.273438 214.941406 L 191.070312 221.078125 L 190.664062 233.359375 L 184.097656 233.191406 L 177.535156 233.019531 L 170.96875 232.835938 L 164.402344 232.644531 Z M 157.839844 232.445312 "/>
<path fill-rule="nonzero" fill="rgb(89.803922%, 89.803922%, 89.803922%)" fill-opacity="1" stroke-width="1.066978" stroke-linecap="butt" stroke-linejoin="round" stroke="rgb(0%, 0%, 0%)" stroke-opacity="1" stroke-miterlimit="10" d="M 276.015625 161.96875 L 276.636719 160.339844 L 276.953125 158.707031 L 276.90625 152.578125 L 276.859375 146.453125 L 276.816406 140.328125 L 277.417969 140.332031 L 278.648438 137.488281 L 279.867188 135.863281 L 281.082031 134.648438 L 282.292969 133.84375 L 282.398438 139.761719 L 282.5 145.683594 L 289.140625 145.730469 L 289.429688 147.777344 L 289.402344 151.859375 L 288.792969 152.671875 L 288.773438 155.941406 L 288.160156 157.160156 L 288.421875 162.882812 L 290.238281 163.304688 L 290.167969 174.339844 L 295.933594 174.371094 L 300.160156 178.480469 L 300.761719 180.121094 L 300.71875 190.34375 L 290.371094 190.289062 L 290.066406 190.285156 L 281.847656 190.226562 L 281.542969 190.226562 L 279.109375 190.207031 L 278.226562 186.515625 L 275.519531 183.21875 L 275.542969 180.765625 L 275.25 179.539062 L 275.875 177.5 L 276.511719 174.234375 L 276.527344 172.597656 L 275.636719 170.546875 L 275.347656 168.910156 L 275.972656 166.871094 L 275.386719 164.414062 L 275.703125 163.191406 Z M 276.015625 161.96875 "/>
<path fill-rule="nonzero" fill="rgb(89.803922%, 89.803922%, 89.803922%)" fill-opacity="1" stroke-width="1.066978" stroke-linecap="butt" stroke-linejoin="round" stroke="rgb(0%, 0%, 0%)" stroke-opacity="1" stroke-miterlimit="10" d="M 152.023438 193.757812 L 151.25 212.976562 L 150.992188 219.386719 L 150.734375 225.800781 L 150.476562 232.210938 L 144.527344 232.015625 L 138.574219 231.8125 L 132.625 231.605469 L 126.675781 231.390625 L 120.726562 231.167969 L 113.367188 230.882812 L 113.402344 224.734375 L 113.441406 218.589844 L 113.476562 212.445312 L 117.238281 210.132812 L 125.351562 205.933594 L 131.632812 201.25 L 133.214844 199.667969 L 134.492188 198.074219 L 136.363281 196.914062 L 137.902344 196.558594 L 139.773438 195.394531 L 143.800781 193.484375 L 146.585938 192.351562 L 148.453125 191.183594 L 149.640625 192.042969 L 149.917969 192.871094 Z M 152.023438 193.757812 "/>
<path fill-rule="nonzero" fill="rgb(89.803922%, 89.803922%, 89.803922%)" fill-opacity="1" stroke-width="1.066978" stroke-linecap="butt" stroke-linejoin="round" stroke="rgb(0%, 0%, 0%)" stroke-opacity="1" stroke-miterlimit="10" d="M 264.304688 235.09375 L 262.460938 235.074219 L 262.640625 228.382812 L 263 215.007812 L 263.007812 214.191406 L 269.738281 213.855469 L 274.933594 213.902344 L 274.902344 217.179688 L 277.65625 217.203125 L 277.652344 217.613281 L 278.875 218.03125 L 279.789062 218.449219 L 281.632812 217.238281 L 281.65625 214.371094 L 285.933594 214.8125 L 285.871094 223.820312 L 284.644531 223.8125 L 284.886719 232.414062 L 284.257812 234.867188 L 277.605469 234.953125 L 270.957031 235.027344 Z M 264.304688 235.09375 "/>
<path fill-rule="nonzero" fill="rgb(89.803922%, 89.803922%, 89.803922%)" fill-opacity="1" stroke-width="1.066978" stroke-linecap="butt" stroke-linejoin="round" stroke="rgb(0%, 0%, 0%)" stroke-opacity="1" stroke-miterlimit="10" d="M 352.105469 181.324219 L 350.613281 186.648438 L 350.3125 187.464844 L 350.328125 190.738281 L 350.03125 192.375 L 349.128906 194.425781 L 347.007812 197.300781 L 346.40625 199.347656 L 346.726562 202.621094 L 347.347656 205.480469 L 346.445312 208.351562 L 346.449219 209.578125 L 345.851562 212.855469 L 345.550781 214.085938 L 345.566406 217.359375 L 345.582031 221.046875 L 333.949219 221.082031 L 333.636719 217.804688 L 323.234375 217.402344 L 322.625 211.46875 L 322.015625 205.53125 L 321.613281 198.167969 L 321.210938 190.800781 L 320.808594 183.441406 L 326.8125 183.03125 L 332.8125 182.617188 L 338.8125 182.195312 L 344.8125 181.765625 L 345.117188 181.765625 Z M 352.105469 181.324219 "/>
<path fill-rule="nonzero" fill="rgb(89.803922%, 89.803922%, 89.803922%)" fill-opacity="1" stroke-width="1.066978" stroke-linecap="butt" stroke-linejoin="round" stroke="rgb(0%, 0%, 0%)" stroke-opacity="1" stroke-miterlimit="10" d="M 416.09375 20.832031 L 422.984375 20.539062 L 429.875 20.242188 L 436.765625 19.933594 L 443.65625 19.617188 L 450.546875 19.289062 L 450.917969 22.527344 L 451.550781 24.136719 L 449.320312 29.472656 L 449.378906 31.910156 L 450.609375 33.910156 L 450.945312 35.527344 L 450.226562 42.457031 L 450.058594 47.746094 L 450.71875 50.578125 L 450.761719 52.203125 L 447.210938 52.695312 L 446.332031 53.121094 L 445.75 53.542969 L 444.914062 56.003906 L 444.035156 56.429688 L 442.5625 56.871094 L 440.492188 57.324219 L 438.15625 59.003906 L 436.085938 59.457031 L 429.414062 60.003906 L 422.742188 60.539062 L 421.972656 51.199219 L 420.480469 50.820312 L 419.414062 41.082031 L 418.527344 41.097656 L 417.710938 34.339844 Z M 416.09375 20.832031 "/>
<path fill-rule="nonzero" fill="rgb(89.803922%, 89.803922%, 89.803922%)" fill-opacity="1" stroke-width="1.066978" stroke-linecap="butt" stroke-linejoin="round" stroke="rgb(0%, 0%, 0%)" stroke-opacity="1" stroke-miterlimit="10" d="M 455.515625 196.957031 L 454.09375 201.082031 L 452.183594 210.546875 L 449.378906 221.261719 L 447.980469 227.027344 L 448.363281 230.296875 L 446.519531 230.339844 L 446.328125 235.261719 L 437.390625 233.820312 L 436.15625 233.433594 L 430.574219 230.679688 L 425.003906 227.917969 L 425.859375 224.625 L 427.03125 221.738281 L 428.828125 219.652344 L 429.382812 216.777344 L 430.582031 215.523438 L 431.789062 214.679688 L 432.359375 212.621094 L 431.996094 209.761719 L 431.945312 207.308594 L 432.191406 204.4375 L 432.421875 200.75 L 438.199219 199.808594 L 443.972656 198.863281 L 449.746094 197.914062 Z M 455.515625 196.957031 "/>
<path fill-rule="nonzero" fill="rgb(89.803922%, 89.803922%, 89.803922%)" fill-opacity="1" stroke-width="1.066978" stroke-linecap="butt" stroke-linejoin="round" stroke="rgb(0%, 0%, 0%)" stroke-opacity="1" stroke-miterlimit="10" d="M 322.015625 205.53125 L 314.84375 205.730469 L 307.667969 205.917969 L 301.257812 205.894531 L 300.988281 198.117188 L 300.71875 190.34375 L 300.761719 180.121094 L 307.242188 179.734375 L 313.722656 179.34375 L 320.203125 178.941406 L 320.808594 183.441406 L 321.210938 190.800781 L 321.613281 198.167969 Z M 322.015625 205.53125 "/>
<path fill-rule="nonzero" fill="rgb(89.803922%, 89.803922%, 89.803922%)" fill-opacity="1" stroke-width="1.066978" stroke-linecap="butt" stroke-linejoin="round" stroke="rgb(0%, 0%, 0%)" stroke-opacity="1" stroke-miterlimit="10" d="M 345.851562 212.855469 L 347.683594 212.03125 L 349.820312 212.019531 L 351.957031 211.191406 L 354.394531 209.949219 L 357.4375 208.292969 L 357.746094 208.699219 L 360.179688 207.046875 L 361.097656 207.449219 L 362.003906 206.214844 L 362.003906 205.808594 L 364.734375 203.742188 L 366.871094 203.722656 L 367.164062 202.492188 L 367.78125 203.308594 L 368.691406 202.890625 L 369.898438 201.242188 L 371.113281 200.414062 L 371.425781 201.230469 L 376.582031 198.316406 L 379.632812 198.695312 L 380.542969 198.277344 L 382.980469 198.25 L 388.246094 205.148438 L 396.546875 209.542969 L 397.773438 209.9375 L 392.714844 220.238281 L 396.726562 222.644531 L 394.292969 223.90625 L 393.0625 223.511719 L 390.953125 226.40625 L 385.328125 230.363281 L 379.699219 234.316406 L 373.082031 238.207031 L 366.460938 242.085938 L 359.828125 245.960938 L 358.59375 245.558594 L 355.824219 245.164062 L 354.898438 244.761719 L 353.664062 243.539062 L 352.71875 239.445312 L 351.175781 237.816406 L 349.011719 234.957031 L 346.558594 234.96875 L 345.933594 232.101562 L 345.613281 229.648438 L 345.59375 224.320312 L 345.582031 221.046875 L 345.566406 217.359375 L 345.550781 214.085938 Z M 345.851562 212.855469 "/>
<path fill-rule="nonzero" fill="rgb(89.803922%, 89.803922%, 89.803922%)" fill-opacity="1" stroke-width="1.066978" stroke-linecap="butt" stroke-linejoin="round" stroke="rgb(0%, 0%, 0%)" stroke-opacity="1" stroke-miterlimit="10" d="M 448.363281 230.296875 L 447.4375 250.300781 L 447.128906 256.972656 L 446.746094 267.234375 L 439.769531 268.480469 L 432.792969 269.722656 L 425.8125 270.953125 L 423.726562 275.09375 L 422.128906 272.25 L 422.390625 269.785156 L 423.273438 267.304688 L 423.542969 265.25 L 424.132812 263.597656 L 424.679688 259.898438 L 425.203125 254.96875 L 425.085938 248.820312 L 424.726562 245.957031 L 425.003906 244.3125 L 423.375 239.421875 L 423.914062 235.316406 L 424.742188 230.382812 L 425.003906 227.917969 L 430.574219 230.679688 L 436.15625 233.433594 L 437.390625 233.820312 L 446.328125 235.261719 L 446.519531 230.339844 Z M 448.363281 230.296875 "/>
<path fill-rule="nonzero" fill="rgb(89.803922%, 89.803922%, 89.803922%)" fill-opacity="1" stroke-width="1.066978" stroke-linecap="butt" stroke-linejoin="round" stroke="rgb(0%, 0%, 0%)" stroke-opacity="1" stroke-miterlimit="10" d="M 152.023438 193.757812 L 149.917969 192.871094 L 149.640625 192.042969 L 148.453125 191.183594 L 149.734375 189.179688 L 152.289062 185.578125 L 152.976562 183.148438 L 154.242188 181.550781 L 155.777344 181.191406 L 160.382812 179.695312 L 162.242188 178.527344 L 163.265625 174.875 L 161.847656 171.5625 L 161.039062 168.265625 L 161.128906 165.40625 L 160.253906 164.152344 L 158.753906 163.695312 L 157.203125 164.875 L 156.949219 163.230469 L 155.1875 161.539062 L 155.25 159.496094 L 155.617188 157.464844 L 154.777344 155.394531 L 159.589844 156.363281 L 161.667969 157.65625 L 162.222656 159.304688 L 164.015625 160.179688 L 165.273438 158.582031 L 166.835938 156.992188 L 169.566406 156.664062 L 170.511719 155.464844 L 174.128906 155.976562 L 175.359375 155.195312 L 177.453125 156.070312 L 179.28125 155.714844 L 179.882812 155.730469 L 181.09375 155.761719 L 182.011719 155.378906 L 183.523438 155.417969 L 184.734375 155.449219 L 184.523438 163.414062 L 184.3125 171.382812 L 182.496094 171.335938 L 182.332031 177.464844 L 183.542969 177.496094 L 183.386719 183.492188 L 183.226562 189.488281 L 183.070312 195.488281 L 178.152344 196.992188 L 175.710938 196.925781 L 174.167969 197.699219 L 172.628906 198.066406 L 171.375 199.257812 L 170.484375 198.414062 L 170.179688 198.40625 L 167.71875 199.152344 L 165.535156 200.726562 L 164.316406 200.6875 L 161.828125 202.25 L 160.300781 202.207031 L 159.71875 201.367188 L 158.496094 201.332031 L 157.074219 198.011719 L 154.433594 194.652344 Z M 152.023438 193.757812 "/>
<path fill-rule="nonzero" fill="rgb(89.803922%, 89.803922%, 89.803922%)" fill-opacity="1" stroke-width="1.066978" stroke-linecap="butt" stroke-linejoin="round" stroke="rgb(0%, 0%, 0%)" stroke-opacity="1" stroke-miterlimit="10" d="M 416.183594 109.945312 L 416.148438 107.910156 L 415.828125 106.691406 L 414.613281 105.898438 L 413.417969 105.917969 L 412.816406 105.925781 L 411.898438 104.71875 L 410.992188 104.328125 L 409.796875 104.347656 L 408.605469 104.773438 L 407.710938 105.195312 L 401.601562 97.136719 L 405.738281 93.816406 L 404.085938 83.65625 L 414.199219 81.863281 L 412.394531 69.136719 L 411.492188 62.777344 L 422.742188 60.539062 L 429.414062 60.003906 L 436.085938 59.457031 L 438.15625 59.003906 L 440.492188 57.324219 L 442.5625 56.871094 L 444.035156 56.429688 L 444.914062 56.003906 L 445.75 53.542969 L 446.332031 53.121094 L 447.210938 52.695312 L 450.761719 52.203125 L 452.007812 54.613281 L 452.964844 57.4375 L 453.652344 61.082031 L 453.457031 65.15625 L 453.558594 69.226562 L 453.617188 71.664062 L 452.796875 74.535156 L 450.183594 77.449219 L 449.332031 79.101562 L 449.089844 81.550781 L 447.417969 86.476562 L 449.007812 90.515625 L 449.074219 93.367188 L 449.730469 95.796875 L 450.695312 98.625 L 451.066406 101.46875 L 451.132812 104.324219 L 448.160156 105.210938 L 441.769531 106.171875 L 435.375 107.128906 L 428.980469 108.074219 L 422.582031 109.015625 Z M 416.183594 109.945312 "/>
<path fill-rule="nonzero" fill="rgb(89.803922%, 89.803922%, 89.803922%)" fill-opacity="1" stroke-width="1.066978" stroke-linecap="butt" stroke-linejoin="round" stroke="rgb(0%, 0%, 0%)" stroke-opacity="1" stroke-miterlimit="10" d="M 422.742188 60.539062 L 411.492188 62.777344 L 412.394531 69.136719 L 414.199219 81.863281 L 404.085938 83.65625 L 397.234375 84.367188 L 390.382812 85.070312 L 390.042969 81.816406 L 391.226562 80.988281 L 389.742188 68.433594 L 389.003906 62.15625 L 388.265625 55.882812 L 387.527344 49.613281 L 386.792969 43.34375 L 386.0625 37.074219 L 385.328125 30.808594 L 384.597656 24.546875 L 380.765625 24.589844 L 380.441406 21.75 L 385.445312 21.289062 L 391.640625 21.617188 L 397.828125 21.53125 L 406.957031 20.984375 L 416.09375 20.832031 L 417.710938 34.339844 L 418.527344 41.097656 L 419.414062 41.082031 L 420.480469 50.820312 L 421.972656 51.199219 Z M 422.742188 60.539062 "/>
<path fill-rule="nonzero" fill="rgb(89.803922%, 89.803922%, 89.803922%)" fill-opacity="1" stroke-width="1.066978" stroke-linecap="butt" stroke-linejoin="round" stroke="rgb(0%, 0%, 0%)" stroke-opacity="1" stroke-miterlimit="10" d="M 379.535156 160.261719 L 379.503906 157.402344 L 379.492188 156.175781 L 380.082031 154.941406 L 381.585938 154.109375 L 381.878906 153.289062 L 381.867188 152.066406 L 382.75 150.011719 L 382.074219 143.484375 L 391.175781 147.460938 L 402.328125 146.082031 L 403.257812 147.703125 L 408.082031 147.21875 L 408.054688 145.585938 L 412.273438 145.109375 L 415.320312 164.257812 L 409.261719 164.359375 L 403.207031 164.453125 L 397.148438 164.542969 L 391.089844 164.621094 L 385.3125 162.445312 Z M 379.535156 160.261719 "/>
<path fill-rule="nonzero" fill="rgb(89.803922%, 89.803922%, 89.803922%)" fill-opacity="1" stroke-width="1.066978" stroke-linecap="butt" stroke-linejoin="round" stroke="rgb(0%, 0%, 0%)" stroke-opacity="1" stroke-miterlimit="10" d="M 184.808594 152.59375 L 190.851562 152.746094 L 196.894531 152.894531 L 202.941406 153.039062 L 203.234375 153.453125 L 208.371094 153.570312 L 213.5 154.085938 L 211.253906 160.167969 L 213.363281 160.621094 L 213.296875 163.890625 L 212.933594 166.742188 L 212.015625 167.132812 L 211.660156 169.578125 L 210.742188 169.96875 L 210.691406 172.417969 L 205.230469 172.300781 L 204.9375 171.886719 L 198.0625 171.726562 L 191.1875 171.558594 L 184.3125 171.382812 L 184.523438 163.414062 L 184.734375 155.449219 Z M 184.808594 152.59375 "/>
<path fill-rule="nonzero" fill="rgb(89.803922%, 89.803922%, 89.803922%)" fill-opacity="1" stroke-width="1.066978" stroke-linecap="butt" stroke-linejoin="round" stroke="rgb(0%, 0%, 0%)" stroke-opacity="1" stroke-miterlimit="10" d="M 407.480469 205.289062 L 413.71875 204.164062 L 419.957031 203.035156 L 426.191406 201.894531 L 432.421875 200.75 L 432.191406 204.4375 L 431.945312 207.308594 L 431.996094 209.761719 L 432.359375 212.621094 L 431.789062 214.679688 L 430.582031 215.523438 L 429.382812 216.777344 L 428.828125 219.652344 L 427.03125 221.738281 L 425.859375 224.625 L 421.519531 221.839844 L 420.609375 222.265625 L 420.300781 222.273438 L 419.375 221.878906 L 417.324219 227.238281 L 411.03125 226.730469 L 404.742188 226.214844 L 396.726562 222.644531 L 392.714844 220.238281 L 397.773438 209.9375 L 396.546875 209.542969 L 400.183594 207.445312 L 401.714844 207.832031 L 402.957031 209.042969 L 407.539062 208.972656 L 408.128906 207.734375 Z M 407.480469 205.289062 "/>
<path fill-rule="nonzero" fill="rgb(89.803922%, 89.803922%, 89.803922%)" fill-opacity="1" stroke-width="1.066978" stroke-linecap="butt" stroke-linejoin="round" stroke="rgb(0%, 0%, 0%)" stroke-opacity="1" stroke-miterlimit="10" d="M 404.085938 83.65625 L 405.738281 93.816406 L 401.601562 97.136719 L 407.710938 105.195312 L 408.605469 104.773438 L 409.796875 104.347656 L 410.992188 104.328125 L 411.898438 104.71875 L 412.816406 105.925781 L 413.417969 105.917969 L 414.613281 105.898438 L 415.828125 106.691406 L 416.148438 107.910156 L 416.183594 109.945312 L 407.808594 111.3125 L 408.660156 117.617188 L 409.515625 123.929688 L 410.371094 130.238281 L 411.226562 136.550781 L 412.273438 145.109375 L 408.054688 145.585938 L 408.082031 147.21875 L 403.257812 147.703125 L 402.328125 146.082031 L 391.175781 147.460938 L 382.074219 143.484375 L 373.890625 139.488281 L 376.246094 133.75 L 378.59375 128.011719 L 377.273438 116.488281 L 375.960938 104.964844 L 375.304688 99.207031 L 374.652344 93.453125 L 373.996094 87.695312 L 382.191406 86.390625 L 390.382812 85.070312 L 397.234375 84.367188 Z M 404.085938 83.65625 "/>
<path fill-rule="nonzero" fill="rgb(89.803922%, 89.803922%, 89.803922%)" fill-opacity="1" stroke-width="1.066978" stroke-linecap="butt" stroke-linejoin="round" stroke="rgb(0%, 0%, 0%)" stroke-opacity="1" stroke-miterlimit="10" d="M 355.699219 172.714844 L 355.996094 171.898438 L 355.507812 165.972656 L 355.019531 160.050781 L 358.914062 153.898438 L 362.796875 147.746094 L 358.859375 145.730469 L 358.550781 144.917969 L 358.847656 144.097656 L 359.738281 142.050781 L 360.335938 141.230469 L 362.433594 139.582031 L 361.886719 133.054688 L 361.335938 126.53125 L 360.789062 120.007812 L 359.617188 106.476562 L 359.035156 99.714844 L 358.449219 92.957031 L 357.867188 86.199219 L 362.367188 89.015625 L 373.996094 87.695312 L 374.652344 93.453125 L 375.304688 99.207031 L 375.960938 104.964844 L 377.273438 116.488281 L 378.59375 128.011719 L 376.246094 133.75 L 373.890625 139.488281 L 382.074219 143.484375 L 382.75 150.011719 L 381.867188 152.066406 L 381.878906 153.289062 L 381.585938 154.109375 L 380.082031 154.941406 L 379.492188 156.175781 L 379.503906 157.402344 L 379.535156 160.261719 L 380.769531 162.699219 L 379.671875 173.335938 L 372.976562 170.949219 L 373.011719 175.039062 L 371.503906 175.871094 L 361.144531 170.636719 L 359.34375 173.511719 L 355.703125 173.535156 Z M 355.699219 172.714844 "/>
<path fill-rule="nonzero" fill="rgb(89.803922%, 89.803922%, 89.803922%)" fill-opacity="1" stroke-width="1.066978" stroke-linecap="butt" stroke-linejoin="round" stroke="rgb(0%, 0%, 0%)" stroke-opacity="1" stroke-miterlimit="10" d="M 343.511719 77.3125 L 338.46875 85.472656 L 341.160156 87.09375 L 340.570312 88.726562 L 340.878906 91.984375 L 338.785156 91.988281 L 339.09375 94.433594 L 337.304688 96.066406 L 335.207031 94.441406 L 327.742188 101.378906 L 322.953125 101.382812 L 322.953125 107.496094 L 325.949219 107.496094 L 326.550781 114.832031 L 319.949219 114.222656 L 313.351562 113.601562 L 313.347656 116.046875 L 303.445312 115.203125 L 302.257812 111.933594 L 301.972656 109.078125 L 299.886719 105.808594 L 298.699219 104.171875 L 299.003906 102.542969 L 300.207031 101.328125 L 301.105469 101.332031 L 302.597656 102.558594 L 303.792969 102.566406 L 306.199219 99.3125 L 306.507812 96.460938 L 303.527344 94.414062 L 306.824219 91.574219 L 306.226562 91.164062 L 304.738281 90.753906 L 303.84375 89.527344 L 302.953125 88.707031 L 301.757812 89.109375 L 301.15625 90.332031 L 300.855469 90.738281 L 302.34375 91.964844 L 302.03125 94.40625 L 300.832031 95.625 L 299.9375 95.214844 L 299.042969 94.800781 L 298.753906 92.355469 L 297.878906 88.6875 L 295.203125 86.636719 L 295.511719 84.601562 L 296.710938 83.386719 L 298.507812 82.171875 L 306.570312 78.132812 L 312.539062 74.488281 L 315.816406 71.644531 L 318.496094 68.800781 L 323.851562 64.734375 L 328.757812 67.882812 L 333.667969 71.03125 L 338.585938 74.175781 Z M 343.511719 77.3125 "/>
<path fill-rule="nonzero" fill="rgb(89.803922%, 89.803922%, 89.803922%)" fill-opacity="1" stroke-width="1.066978" stroke-linecap="butt" stroke-linejoin="round" stroke="rgb(0%, 0%, 0%)" stroke-opacity="1" stroke-miterlimit="10" d="M 430.714844 332.039062 L 427.621094 333.742188 L 426.410156 335.820312 L 425.804688 337.0625 L 423.28125 335.878906 L 423.253906 334.234375 L 422.917969 333.007812 L 422.261719 331.375 L 421.929688 330.148438 L 422.539062 329.316406 L 423.78125 328.882812 L 425.007812 327.625 L 426.222656 325.960938 L 426.863281 326.769531 L 426.566406 327.597656 L 427.527344 328.8125 L 429.097656 329.195312 L 429.746094 330.414062 Z M 430.714844 332.039062 "/>
<path fill-rule="nonzero" fill="rgb(89.803922%, 89.803922%, 89.803922%)" fill-opacity="1" stroke-width="1.066978" stroke-linecap="butt" stroke-linejoin="round" stroke="rgb(0%, 0%, 0%)" stroke-opacity="1" stroke-miterlimit="10" d="M 327.460938 130.335938 L 327.003906 122.582031 L 326.550781 114.832031 L 325.949219 107.496094 L 322.953125 107.496094 L 322.953125 101.382812 L 327.742188 101.378906 L 335.207031 94.441406 L 337.304688 96.066406 L 339.09375 94.433594 L 338.785156 91.988281 L 340.878906 91.984375 L 340.570312 88.726562 L 341.160156 87.09375 L 338.46875 85.472656 L 343.511719 77.3125 L 350.683594 81.757812 L 357.867188 86.199219 L 358.449219 92.957031 L 359.035156 99.714844 L 359.617188 106.476562 L 360.789062 120.007812 L 355.253906 123.511719 L 349.710938 127.007812 L 344.164062 130.5 L 338.605469 133.988281 L 333.03125 132.164062 Z M 327.460938 130.335938 "/>
<path fill-rule="nonzero" fill="rgb(89.803922%, 89.803922%, 89.803922%)" fill-opacity="1" stroke-width="1.066978" stroke-linecap="butt" stroke-linejoin="round" stroke="rgb(0%, 0%, 0%)" stroke-opacity="1" stroke-miterlimit="10" d="M 205.292969 196.847656 L 205.003906 196.019531 L 205.652344 194.398438 L 207.226562 191.976562 L 207.246094 191.160156 L 210.089844 186.3125 L 210.390625 179.363281 L 210.691406 172.417969 L 210.742188 169.96875 L 211.660156 169.578125 L 212.015625 167.132812 L 212.933594 166.742188 L 213.296875 163.890625 L 222.078125 164.066406 L 222.0625 164.882812 L 222.652344 165.710938 L 221.402344 167.730469 L 226.855469 167.835938 L 227.167969 167.429688 L 230.5 167.492188 L 231.953125 171.195312 L 232.214844 173.652344 L 230.386719 174.03125 L 229.988281 179.339844 L 229.367188 180.144531 L 229.867188 186.289062 L 235.332031 186.792969 L 235.230469 192.925781 L 226.089844 193.175781 L 225.722656 196.445312 L 222.675781 196.386719 L 222.285156 200.882812 L 216.1875 200.761719 L 216.253906 197.488281 L 205.585938 197.261719 Z M 205.292969 196.847656 "/>
<path fill-rule="nonzero" fill="rgb(89.803922%, 89.803922%, 89.803922%)" fill-opacity="1" stroke-width="1.066978" stroke-linecap="butt" stroke-linejoin="round" stroke="rgb(0%, 0%, 0%)" stroke-opacity="1" stroke-miterlimit="10" d="M 320.203125 178.941406 L 319.90625 172.265625 L 319.605469 165.589844 L 319.308594 158.914062 L 319.007812 157.6875 L 318.402344 157.6875 L 315.683594 157.277344 L 316.289062 155.234375 L 316.59375 154.011719 L 315.6875 153.191406 L 315.691406 151.964844 L 314.484375 150.738281 L 315.691406 150.742188 L 317.804688 151.152344 L 318.105469 152.378906 L 320.523438 152.789062 L 321.429688 152.789062 L 322.941406 152.382812 L 325.660156 151.972656 L 327.777344 152.378906 L 330.5 154.417969 L 332.921875 156.050781 L 333.53125 158.5 L 334.4375 158.90625 L 334.746094 160.949219 L 337.773438 161.351562 L 338.699219 168.292969 L 344.15625 168.277344 L 344.476562 173.179688 L 354.488281 173.132812 L 354.503906 175.585938 L 354.207031 176.8125 L 353.003906 179.273438 L 352.105469 181.324219 L 345.117188 181.765625 L 344.8125 181.765625 L 338.8125 182.195312 L 332.8125 182.617188 L 326.8125 183.03125 L 320.808594 183.441406 Z M 320.203125 178.941406 "/>
<path fill-rule="nonzero" fill="rgb(89.803922%, 89.803922%, 89.803922%)" fill-opacity="1" stroke-width="1.066978" stroke-linecap="butt" stroke-linejoin="round" stroke="rgb(0%, 0%, 0%)" stroke-opacity="1" stroke-miterlimit="10" d="M 242.394531 143.175781 L 241.820312 160.730469 L 236.066406 161.046875 L 235.652344 167.578125 L 230.5 167.492188 L 227.167969 167.429688 L 226.855469 167.835938 L 221.402344 167.730469 L 222.652344 165.710938 L 222.0625 164.882812 L 222.078125 164.066406 L 213.296875 163.890625 L 213.363281 160.621094 L 211.253906 160.167969 L 213.5 154.085938 L 208.371094 153.570312 L 208.707031 145.203125 L 209.039062 136.835938 L 212.644531 137.324219 L 219.25 138.683594 L 222.257812 139.148438 L 225.820312 142.074219 L 228.492188 144.574219 L 230.589844 145.429688 L 232.699219 145.464844 L 233.578125 147.113281 L 234.8125 145.503906 L 236.34375 144.304688 L 239.984375 143.136719 Z M 242.394531 143.175781 "/>
<path fill-rule="nonzero" fill="rgb(89.803922%, 89.803922%, 89.803922%)" fill-opacity="1" stroke-width="1.066978" stroke-linecap="butt" stroke-linejoin="round" stroke="rgb(0%, 0%, 0%)" stroke-opacity="1" stroke-miterlimit="10" d="M 407.347656 177.472656 L 405.84375 178.3125 L 396.144531 179.679688 L 391.246094 176.882812 L 385.769531 175.722656 L 379.671875 173.335938 L 380.769531 162.699219 L 379.535156 160.261719 L 385.3125 162.445312 L 391.089844 164.621094 L 397.148438 164.542969 L 403.207031 164.453125 L 409.261719 164.359375 L 415.320312 164.257812 L 415.660156 166.296875 L 411.507812 171.886719 Z M 407.347656 177.472656 "/>
<path fill-rule="nonzero" fill="rgb(89.803922%, 89.803922%, 89.803922%)" fill-opacity="1" stroke-width="1.066978" stroke-linecap="butt" stroke-linejoin="round" stroke="rgb(0%, 0%, 0%)" stroke-opacity="1" stroke-miterlimit="10" d="M 438.921875 335.984375 L 437.308594 333.550781 L 437.917969 332.714844 L 438.507812 331.058594 L 438.792969 329.820312 L 438.09375 326.136719 L 438.394531 325.71875 L 439.011719 325.296875 L 438.992188 324.472656 L 438.023438 322.851562 L 436.125 321.65625 L 436.40625 320.007812 L 437.652344 319.984375 L 438.265625 319.558594 L 438.222656 317.503906 L 439.140625 316.664062 L 440.394531 317.046875 L 441.367188 318.671875 L 441.667969 318.253906 L 441.652344 317.433594 L 441.3125 316.207031 L 443.136719 314.113281 L 446.828125 311.976562 L 448.394531 312.351562 L 449.6875 314.378906 L 451.214844 313.109375 L 453.597656 321.679688 L 455.992188 330.253906 L 452.574219 331.15625 L 450.691406 330.789062 L 448.523438 331.664062 L 442.308594 333.445312 L 440.433594 333.484375 Z M 438.921875 335.984375 "/>
<path fill-rule="nonzero" fill="rgb(89.803922%, 89.803922%, 89.803922%)" fill-opacity="1" stroke-width="1.066978" stroke-linecap="butt" stroke-linejoin="round" stroke="rgb(0%, 0%, 0%)" stroke-opacity="1" stroke-miterlimit="10" d="M 427.042969 319.78125 L 426.753906 321.019531 L 425.835938 321.859375 L 425.242188 323.511719 L 424.953125 324.75 L 424.65625 325.578125 L 423.109375 326.429688 L 422.179688 326.855469 L 421.855469 326.039062 L 423.042969 322.734375 L 424.566406 320.648438 L 425.757812 317.753906 L 426.6875 317.324219 L 427.003906 317.730469 L 426.707031 318.554688 Z M 427.042969 319.78125 "/>
<path fill-rule="nonzero" fill="rgb(89.803922%, 89.803922%, 89.803922%)" fill-opacity="1" stroke-width="1.066978" stroke-linecap="butt" stroke-linejoin="round" stroke="rgb(0%, 0%, 0%)" stroke-opacity="1" stroke-miterlimit="10" d="M 185.238281 136.265625 L 185.023438 144.425781 L 184.808594 152.59375 L 184.734375 155.449219 L 183.523438 155.417969 L 182.011719 155.378906 L 181.09375 155.761719 L 179.882812 155.730469 L 179.28125 155.714844 L 177.453125 156.070312 L 175.359375 155.195312 L 174.128906 155.976562 L 170.511719 155.464844 L 169.566406 156.664062 L 166.835938 156.992188 L 165.273438 158.582031 L 164.015625 160.179688 L 162.222656 159.304688 L 161.667969 157.65625 L 159.589844 156.363281 L 154.777344 155.394531 L 153.289062 154.53125 L 153.332031 153.304688 L 154.289062 151.699219 L 155.535156 150.515625 L 155.640625 147.25 L 155.757812 143.574219 L 156.136719 141.136719 L 158.273438 140.386719 L 164.945312 139.367188 L 174.046875 137.589844 L 181.925781 136.175781 Z M 185.238281 136.265625 "/>
<path fill-rule="nonzero" fill="rgb(89.803922%, 89.803922%, 89.803922%)" fill-opacity="1" stroke-width="1.066978" stroke-linecap="butt" stroke-linejoin="round" stroke="rgb(0%, 0%, 0%)" stroke-opacity="1" stroke-miterlimit="10" d="M 354.488281 173.132812 L 344.476562 173.179688 L 344.15625 168.277344 L 338.699219 168.292969 L 337.773438 161.351562 L 334.746094 160.949219 L 334.4375 158.90625 L 333.53125 158.5 L 332.921875 156.050781 L 330.5 154.417969 L 327.777344 152.378906 L 325.660156 151.972656 L 322.941406 152.382812 L 321.429688 152.789062 L 320.523438 152.789062 L 321.4375 141.355469 L 320.53125 140.945312 L 322.191406 135.234375 L 323.847656 129.519531 L 327.460938 130.335938 L 333.03125 132.164062 L 338.605469 133.988281 L 344.164062 130.5 L 349.710938 127.007812 L 355.253906 123.511719 L 360.789062 120.007812 L 361.335938 126.53125 L 361.886719 133.054688 L 362.433594 139.582031 L 360.335938 141.230469 L 359.738281 142.050781 L 358.847656 144.097656 L 358.550781 144.917969 L 358.859375 145.730469 L 362.796875 147.746094 L 358.914062 153.898438 L 355.019531 160.050781 L 355.507812 165.972656 L 355.996094 171.898438 L 355.699219 172.714844 L 354.789062 172.722656 Z M 354.488281 173.132812 "/>
<path fill-rule="nonzero" fill="rgb(89.803922%, 89.803922%, 89.803922%)" fill-opacity="1" stroke-width="1.066978" stroke-linecap="butt" stroke-linejoin="round" stroke="rgb(0%, 0%, 0%)" stroke-opacity="1" stroke-miterlimit="10" d="M 289.429688 147.777344 L 298.1875 147.824219 L 299.390625 148.238281 L 299.6875 149.464844 L 300.902344 148.246094 L 300.902344 147.839844 L 300.90625 147.023438 L 303.316406 148.664062 L 303.917969 148.667969 L 304.226562 147.035156 L 304.234375 144.992188 L 304.539062 144.585938 L 305.441406 144.996094 L 306.945312 146.636719 L 309.355469 148.277344 L 309.957031 149.503906 L 310.558594 149.503906 L 311.769531 149.507812 L 312.671875 150.328125 L 314.484375 150.738281 L 315.691406 151.964844 L 315.6875 153.191406 L 316.59375 154.011719 L 316.289062 155.234375 L 315.683594 157.277344 L 318.402344 157.6875 L 319.007812 157.6875 L 319.308594 158.914062 L 319.605469 165.589844 L 319.90625 172.265625 L 320.203125 178.941406 L 313.722656 179.34375 L 307.242188 179.734375 L 300.761719 180.121094 L 300.160156 178.480469 L 295.933594 174.371094 L 290.167969 174.339844 L 290.238281 163.304688 L 288.421875 162.882812 L 288.160156 157.160156 L 288.773438 155.941406 L 288.792969 152.671875 L 289.402344 151.859375 Z M 289.429688 147.777344 "/>
<path fill-rule="nonzero" fill="rgb(89.803922%, 89.803922%, 89.803922%)" fill-opacity="1" stroke-width="1.066978" stroke-linecap="butt" stroke-linejoin="round" stroke="rgb(0%, 0%, 0%)" stroke-opacity="1" stroke-miterlimit="10" d="M 262.480469 180.632812 L 256.402344 180.558594 L 250.328125 180.476562 L 244.25 180.390625 L 244.234375 181.617188 L 242.988281 183.640625 L 242.644531 186.089844 L 242.335938 186.496094 L 241.929688 193.035156 L 235.230469 192.925781 L 235.332031 186.792969 L 229.867188 186.289062 L 229.367188 180.144531 L 229.988281 179.339844 L 230.386719 174.03125 L 232.214844 173.652344 L 231.953125 171.195312 L 230.5 167.492188 L 235.652344 167.578125 L 236.066406 161.046875 L 241.820312 160.730469 L 248.78125 160.835938 L 248.789062 160.425781 L 254.539062 160.503906 L 254.511719 162.546875 L 263.902344 162.253906 L 263.800781 171.242188 L 263.484375 172.464844 L 262.871094 172.867188 L 262.847656 174.914062 L 261.914062 176.945312 L 261.90625 177.761719 Z M 262.480469 180.632812 "/>
<path fill-rule="nonzero" fill="rgb(89.803922%, 89.803922%, 89.803922%)" fill-opacity="1" stroke-width="1.066978" stroke-linecap="butt" stroke-linejoin="round" stroke="rgb(0%, 0%, 0%)" stroke-opacity="1" stroke-miterlimit="10" d="M 381.054688 275.710938 L 381.3125 270.785156 L 388.878906 270.496094 L 396.445312 270.195312 L 397.964844 268.53125 L 398.871094 266.878906 L 401.914062 263.964844 L 403.753906 263.117188 L 406.507812 261.4375 L 408.652344 260.582031 L 409 263.039062 L 415.503906 264.574219 L 415.472656 262.523438 L 417.328125 262.902344 L 417.644531 263.304688 L 418.554688 262.46875 L 419.496094 263.273438 L 419.207031 264.507812 L 424.132812 263.597656 L 423.542969 265.25 L 423.273438 267.304688 L 422.390625 269.785156 L 422.128906 272.25 L 423.726562 275.09375 L 424.359375 275.902344 L 425 277.121094 L 424.738281 279.585938 L 424.171875 282.46875 L 419.398438 286.933594 L 414.617188 291.394531 L 409.828125 295.851562 L 402.316406 291.859375 L 395.960938 287.980469 L 389.609375 284.09375 L 383.269531 280.199219 L 382.632812 278.566406 L 381.6875 276.933594 Z M 381.054688 275.710938 "/>
<path fill-rule="nonzero" fill="rgb(89.803922%, 89.803922%, 89.803922%)" fill-opacity="1" stroke-width="1.066978" stroke-linecap="butt" stroke-linejoin="round" stroke="rgb(0%, 0%, 0%)" stroke-opacity="1" stroke-miterlimit="10" d="M 209.039062 136.835938 L 208.707031 145.203125 L 208.371094 153.570312 L 203.234375 153.453125 L 202.941406 153.039062 L 196.894531 152.894531 L 190.851562 152.746094 L 184.808594 152.59375 L 185.023438 144.425781 L 185.238281 136.265625 L 187.648438 136.328125 L 195.480469 136.523438 L 198.503906 136.1875 L 199.699219 136.625 L 204.527344 136.328125 Z M 209.039062 136.835938 "/>
<path fill-rule="nonzero" fill="rgb(89.803922%, 89.803922%, 89.803922%)" fill-opacity="1" stroke-width="1.066978" stroke-linecap="butt" stroke-linejoin="round" stroke="rgb(0%, 0%, 0%)" stroke-opacity="1" stroke-miterlimit="10" d="M 314.484375 150.738281 L 312.671875 150.328125 L 311.769531 149.507812 L 310.558594 149.503906 L 309.957031 149.503906 L 309.355469 148.277344 L 306.945312 146.636719 L 305.441406 144.996094 L 304.539062 144.585938 L 304.234375 144.992188 L 304.226562 147.035156 L 303.917969 148.667969 L 303.316406 148.664062 L 300.90625 147.023438 L 300.902344 147.839844 L 300.902344 148.246094 L 299.6875 149.464844 L 299.390625 148.238281 L 298.1875 147.824219 L 289.429688 147.777344 L 289.140625 145.730469 L 282.5 145.683594 L 282.398438 139.761719 L 282.292969 133.84375 L 284.417969 131.820312 L 287.425781 131.839844 L 288.03125 131.4375 L 289.257812 128.179688 L 291.070312 126.558594 L 293.476562 126.574219 L 296.480469 127.40625 L 299.789062 127.421875 L 301 125.796875 L 302.511719 123.765625 L 302.820312 121.726562 L 303.132812 118.054688 L 303.445312 115.203125 L 313.347656 116.046875 L 313.351562 113.601562 L 319.949219 114.222656 L 326.550781 114.832031 L 327.003906 122.582031 L 327.460938 130.335938 L 323.847656 129.519531 L 322.191406 135.234375 L 320.53125 140.945312 L 321.4375 141.355469 L 320.523438 152.789062 L 318.105469 152.378906 L 317.804688 151.152344 L 315.691406 150.742188 Z M 314.484375 150.738281 "/>
<path fill-rule="nonzero" fill="rgb(89.803922%, 89.803922%, 89.803922%)" fill-opacity="1" stroke-width="1.066978" stroke-linecap="butt" stroke-linejoin="round" stroke="rgb(0%, 0%, 0%)" stroke-opacity="1" stroke-miterlimit="10" d="M 379.671875 173.335938 L 385.769531 175.722656 L 385.1875 178.183594 L 385.207031 179.816406 L 387.121094 187.566406 L 387.152344 190.019531 L 382.980469 198.25 L 380.542969 198.277344 L 379.632812 198.695312 L 376.582031 198.316406 L 371.425781 201.230469 L 371.113281 200.414062 L 369.898438 201.242188 L 368.691406 202.890625 L 367.78125 203.308594 L 367.164062 202.492188 L 366.871094 203.722656 L 364.734375 203.742188 L 362.003906 205.808594 L 362.003906 206.214844 L 361.097656 207.449219 L 360.179688 207.046875 L 357.746094 208.699219 L 357.4375 208.292969 L 354.394531 209.949219 L 351.957031 211.191406 L 349.820312 212.019531 L 347.683594 212.03125 L 345.851562 212.855469 L 346.449219 209.578125 L 346.445312 208.351562 L 347.347656 205.480469 L 346.726562 202.621094 L 346.40625 199.347656 L 347.007812 197.300781 L 349.128906 194.425781 L 350.03125 192.375 L 350.328125 190.738281 L 350.3125 187.464844 L 350.613281 186.648438 L 352.105469 181.324219 L 353.003906 179.273438 L 354.207031 176.8125 L 354.503906 175.585938 L 354.488281 173.132812 L 354.789062 172.722656 L 355.699219 172.714844 L 355.703125 173.535156 L 359.34375 173.511719 L 361.144531 170.636719 L 371.503906 175.871094 L 373.011719 175.039062 L 372.976562 170.949219 Z M 379.671875 173.335938 "/>
<path fill-rule="nonzero" fill="rgb(89.803922%, 89.803922%, 89.803922%)" fill-opacity="1" stroke-width="1.066978" stroke-linecap="butt" stroke-linejoin="round" stroke="rgb(0%, 0%, 0%)" stroke-opacity="1" stroke-miterlimit="10" d="M 446.746094 267.234375 L 446.574219 273.1875 L 446.398438 279.140625 L 438.992188 280.261719 L 431.582031 281.371094 L 424.171875 282.46875 L 424.738281 279.585938 L 425 277.121094 L 424.359375 275.902344 L 423.726562 275.09375 L 425.8125 270.953125 L 432.792969 269.722656 L 439.769531 268.480469 Z M 446.746094 267.234375 "/>
<path fill-rule="nonzero" fill="rgb(89.803922%, 89.803922%, 89.803922%)" fill-opacity="1" stroke-width="1.066978" stroke-linecap="butt" stroke-linejoin="round" stroke="rgb(0%, 0%, 0%)" stroke-opacity="1" stroke-miterlimit="10" d="M 436.125 321.65625 L 438.023438 322.851562 L 438.992188 324.472656 L 439.011719 325.296875 L 438.394531 325.71875 L 438.09375 326.136719 L 438.792969 329.820312 L 438.507812 331.058594 L 437.917969 332.714844 L 437.308594 333.550781 L 438.921875 335.984375 L 436.125 336.863281 L 433.625 336.914062 L 431.453125 337.777344 L 429.894531 338.21875 L 428.324219 337.839844 L 428.933594 337.003906 L 430.792969 336.148438 L 432.964844 335.28125 L 434.832031 334.832031 L 435.433594 333.589844 L 435.417969 332.765625 L 434.453125 331.554688 L 432.589844 332 L 430.714844 332.039062 L 429.746094 330.414062 L 429.097656 329.195312 L 427.527344 328.8125 L 426.566406 327.597656 L 426.863281 326.769531 L 426.222656 325.960938 L 428.027344 322.230469 L 429.28125 322.617188 L 430.546875 323.414062 L 431.472656 322.984375 L 432.382812 321.734375 L 433.285156 320.070312 L 433.625 321.296875 L 435.511719 322.082031 Z M 436.125 321.65625 "/>
<path fill-rule="nonzero" fill="rgb(89.803922%, 89.803922%, 89.803922%)" fill-opacity="1" stroke-width="1.066978" stroke-linecap="butt" stroke-linejoin="round" stroke="rgb(0%, 0%, 0%)" stroke-opacity="1" stroke-miterlimit="10" d="M 455.515625 196.957031 L 449.746094 197.914062 L 443.972656 198.863281 L 438.199219 199.808594 L 432.421875 200.75 L 432.941406 196.234375 L 433.492188 193.359375 L 433.753906 191.308594 L 433.433594 190.496094 L 434.3125 188.84375 L 434.566406 186.382812 L 435.433594 184.320312 L 437.726562 177.726562 L 437.984375 175.675781 L 437.949219 174.042969 L 437.898438 171.589844 L 437.863281 169.953125 L 438.746094 168.710938 L 439.324219 167.46875 L 439.308594 166.652344 L 449.296875 166.019531 L 450.1875 165.179688 L 451.105469 165.566406 L 452.316406 165.535156 L 452.933594 165.929688 L 458.394531 166.203125 L 458.480469 169.472656 L 458.886719 173.550781 L 458.625 175.191406 L 458.675781 177.238281 L 458.757812 180.507812 L 459.136719 183.359375 L 457.191406 190.773438 Z M 455.515625 196.957031 "/>
<path fill-rule="nonzero" fill="rgb(89.803922%, 89.803922%, 89.803922%)" fill-opacity="1" stroke-width="1.066978" stroke-linecap="butt" stroke-linejoin="round" stroke="rgb(0%, 0%, 0%)" stroke-opacity="1" stroke-miterlimit="10" d="M 414.132812 331.105469 L 415.375 330.671875 L 418.179688 330.214844 L 420.121094 333.878906 L 418.898438 335.542969 L 416.4375 338.050781 L 414.589844 339.726562 L 413.363281 341.390625 L 410.878906 342.664062 L 408.382812 343.113281 L 407.417969 341.484375 L 407.71875 340.660156 L 409.269531 339.8125 L 410.183594 338.15625 L 410.773438 336.089844 L 411.367188 334.027344 L 412.292969 333.1875 L 413.507812 331.113281 Z M 414.132812 331.105469 "/>
<path fill-rule="nonzero" fill="rgb(89.803922%, 89.803922%, 89.803922%)" fill-opacity="1" stroke-width="1.066978" stroke-linecap="butt" stroke-linejoin="round" stroke="rgb(0%, 0%, 0%)" stroke-opacity="1" stroke-miterlimit="10" d="M 409.828125 295.851562 L 414.617188 291.394531 L 419.398438 286.933594 L 424.171875 282.46875 L 424.195312 283.703125 L 424.527344 284.925781 L 424.851562 285.742188 L 424.574219 287.386719 L 424.585938 288.210938 L 424.921875 289.433594 L 427.457031 292.257812 L 428.433594 294.703125 L 428.472656 296.757812 L 428.34375 306.203125 L 423 303.15625 L 417.660156 300.101562 L 412.328125 297.042969 Z M 409.828125 295.851562 "/>
<path fill-rule="nonzero" fill="rgb(89.803922%, 89.803922%, 89.803922%)" fill-opacity="1" stroke-width="1.066978" stroke-linecap="butt" stroke-linejoin="round" stroke="rgb(0%, 0%, 0%)" stroke-opacity="1" stroke-miterlimit="10" d="M 343.511719 77.3125 L 338.585938 74.175781 L 333.667969 71.03125 L 328.757812 67.882812 L 323.851562 64.734375 L 324.445312 63.105469 L 325.632812 60.664062 L 326.226562 58.628906 L 325.632812 57.410156 L 327.707031 54.15625 L 333.039062 49.675781 L 337.324219 45.601562 L 341.601562 41.527344 L 346.609375 36.628906 L 351.609375 31.730469 L 355.144531 30.085938 L 361.609375 26.386719 L 364.550781 25.148438 L 366.011719 23.511719 L 369.246094 22.265625 L 371.597656 21.839844 L 374.535156 20.59375 L 376.007812 20.578125 L 379.554688 21.761719 L 380.441406 21.75 L 380.765625 24.589844 L 384.597656 24.546875 L 385.328125 30.808594 L 386.0625 37.074219 L 386.792969 43.34375 L 387.527344 49.613281 L 388.265625 55.882812 L 389.003906 62.15625 L 389.742188 68.433594 L 391.226562 80.988281 L 390.042969 81.816406 L 390.382812 85.070312 L 382.191406 86.390625 L 373.996094 87.695312 L 362.367188 89.015625 L 357.867188 86.199219 L 350.683594 81.757812 Z M 343.511719 77.3125 "/>
<path fill-rule="nonzero" fill="rgb(89.803922%, 89.803922%, 89.803922%)" fill-opacity="1" stroke-width="1.066978" stroke-linecap="butt" stroke-linejoin="round" stroke="rgb(0%, 0%, 0%)" stroke-opacity="1" stroke-miterlimit="10" d="M 415.660156 166.296875 L 415.320312 164.257812 L 412.273438 145.109375 L 411.226562 136.550781 L 418.59375 135.609375 L 425.957031 134.65625 L 428.503906 141.546875 L 428.8125 141.949219 L 428.257812 144.410156 L 428.871094 144.804688 L 430.078125 144.78125 L 431 145.582031 L 431.914062 145.96875 L 432.507812 145.550781 L 433.363281 143.082031 L 434.863281 142.640625 L 435.464844 142.628906 L 436.070312 142.617188 L 436.386719 143.425781 L 436.992188 143.414062 L 436.972656 142.597656 L 437.25 141.367188 L 439.351562 140.910156 L 440.867188 141.285156 L 440.894531 142.511719 L 440.621094 143.742188 L 441.910156 147.390625 L 441.980469 150.65625 L 442.054688 153.921875 L 442.695312 155.542969 L 442.449219 158 L 441.027344 162.121094 L 439.859375 164.1875 L 439.308594 166.652344 L 439.324219 167.46875 L 438.746094 168.710938 L 437.863281 169.953125 L 437.898438 171.589844 L 437.949219 174.042969 L 437.984375 175.675781 L 437.726562 177.726562 L 435.902344 177.765625 L 435.261719 176.144531 L 434.039062 175.757812 L 433.433594 175.773438 L 431.949219 177.4375 L 430.144531 178.292969 L 428.878906 175.863281 L 428.273438 175.875 L 426.730469 174.679688 L 425.789062 173.0625 L 425.464844 171.839844 L 425.105469 168.988281 L 422.703125 170.257812 L 417.78125 166.261719 Z M 415.660156 166.296875 "/>
<path fill-rule="nonzero" fill="rgb(89.803922%, 89.803922%, 89.803922%)" fill-opacity="1" stroke-width="1.066978" stroke-linecap="butt" stroke-linejoin="round" stroke="rgb(0%, 0%, 0%)" stroke-opacity="1" stroke-miterlimit="10" d="M 415.660156 166.296875 L 417.78125 166.261719 L 422.703125 170.257812 L 425.105469 168.988281 L 425.464844 171.839844 L 425.789062 173.0625 L 426.730469 174.679688 L 428.273438 175.875 L 428.878906 175.863281 L 430.144531 178.292969 L 423.890625 179.640625 L 417.636719 180.980469 L 411.375 182.316406 L 410.789062 183.550781 L 410.484375 183.554688 L 407.734375 182.78125 L 407.75 183.601562 L 404.0625 181.203125 L 405.875 180.359375 L 406.765625 179.117188 L 407.347656 177.472656 L 411.507812 171.886719 Z M 415.660156 166.296875 "/>
<path fill-rule="nonzero" fill="rgb(89.803922%, 89.803922%, 89.803922%)" fill-opacity="1" stroke-width="1.066978" stroke-linecap="butt" stroke-linejoin="round" stroke="rgb(0%, 0%, 0%)" stroke-opacity="1" stroke-miterlimit="10" d="M 385.769531 175.722656 L 391.246094 176.882812 L 396.144531 179.679688 L 405.84375 178.3125 L 407.347656 177.472656 L 406.765625 179.117188 L 405.875 180.359375 L 404.0625 181.203125 L 407.75 183.601562 L 407.734375 182.78125 L 410.484375 183.554688 L 410.789062 183.550781 L 411.375 182.316406 L 412.019531 184.347656 L 411.746094 186.398438 L 410.589844 190.097656 L 409.71875 192.566406 L 408.523438 194.222656 L 408.894531 198.308594 L 407.722656 201.195312 L 406.558594 204.894531 L 407.480469 205.289062 L 408.128906 207.734375 L 407.539062 208.972656 L 402.957031 209.042969 L 401.714844 207.832031 L 400.183594 207.445312 L 396.546875 209.542969 L 388.246094 205.148438 L 382.980469 198.25 L 387.152344 190.019531 L 387.121094 187.566406 L 385.207031 179.816406 L 385.1875 178.183594 Z M 385.769531 175.722656 "/>
<path fill-rule="nonzero" fill="rgb(89.803922%, 89.803922%, 89.803922%)" fill-opacity="1" stroke-width="1.066978" stroke-linecap="butt" stroke-linejoin="round" stroke="rgb(0%, 0%, 0%)" stroke-opacity="1" stroke-miterlimit="10" d="M 266.261719 196.21875 L 277.234375 195.507812 L 277.761719 205.332031 L 278.054688 206.5625 L 278.03125 209.429688 L 277.683594 214.335938 L 281.65625 214.371094 L 281.632812 217.238281 L 279.789062 218.449219 L 278.875 218.03125 L 277.652344 217.613281 L 277.65625 217.203125 L 274.902344 217.179688 L 274.933594 213.902344 L 269.738281 213.855469 L 263.007812 214.191406 L 263 215.007812 L 255.355469 214.917969 L 255.296875 207.34375 L 255.242188 199.769531 L 261.34375 199.84375 L 261.628906 201.484375 L 262.847656 201.5 L 263.148438 201.914062 L 266.8125 201.542969 L 266.550781 197.449219 Z M 266.261719 196.21875 "/>
<path fill-rule="nonzero" fill="rgb(89.803922%, 89.803922%, 89.803922%)" fill-opacity="1" stroke-width="1.066978" stroke-linecap="butt" stroke-linejoin="round" stroke="rgb(0%, 0%, 0%)" stroke-opacity="1" stroke-miterlimit="10" d="M 263.902344 162.253906 L 269.960938 162.113281 L 276.015625 161.96875 L 275.703125 163.191406 L 275.386719 164.414062 L 275.972656 166.871094 L 275.347656 168.910156 L 275.636719 170.546875 L 276.527344 172.597656 L 276.511719 174.234375 L 275.875 177.5 L 275.25 179.539062 L 275.542969 180.765625 L 275.519531 183.21875 L 278.226562 186.515625 L 279.109375 190.207031 L 279.703125 191.847656 L 281.210938 193.902344 L 282.71875 195.550781 L 277.234375 195.507812 L 266.261719 196.21875 L 264.796875 190.882812 L 264.800781 190.472656 L 265.121094 188.839844 L 265.136719 187.613281 L 263.929688 186.78125 L 263.023438 185.953125 L 262.480469 180.632812 L 261.90625 177.761719 L 261.914062 176.945312 L 262.847656 174.914062 L 262.871094 172.867188 L 263.484375 172.464844 L 263.800781 171.242188 Z M 263.902344 162.253906 "/>
<path fill-rule="nonzero" fill="rgb(89.803922%, 89.803922%, 89.803922%)" fill-opacity="1" stroke-width="1.066978" stroke-linecap="butt" stroke-linejoin="round" stroke="rgb(0%, 0%, 0%)" stroke-opacity="1" stroke-miterlimit="10" d="M 262.460938 235.074219 L 255.589844 234.90625 L 248.714844 234.734375 L 241.84375 234.550781 L 234.96875 234.359375 L 228.097656 234.160156 L 220.121094 234.011719 L 220.480469 228.117188 L 220.839844 222.226562 L 221.195312 216.335938 L 221.554688 210.445312 L 221.910156 204.558594 L 222.214844 204.5625 L 222.285156 200.882812 L 222.675781 196.386719 L 225.722656 196.445312 L 226.089844 193.175781 L 235.230469 192.925781 L 241.929688 193.035156 L 253.496094 193.609375 L 253.425781 198.929688 L 254.949219 198.949219 L 255.242188 199.769531 L 255.296875 207.34375 L 255.355469 214.917969 L 263 215.007812 L 262.640625 228.382812 Z M 262.460938 235.074219 "/>
<path fill-rule="nonzero" fill="rgb(89.803922%, 89.803922%, 89.803922%)" fill-opacity="1" stroke-width="1.066978" stroke-linecap="butt" stroke-linejoin="round" stroke="rgb(0%, 0%, 0%)" stroke-opacity="1" stroke-miterlimit="10" d="M 451.214844 313.109375 L 450.554688 311.480469 L 451.148438 310.234375 L 452.074219 309.804688 L 454.609375 311.796875 L 456.167969 311.757812 L 457.0625 310.09375 L 458.304688 310.0625 L 464.570312 311.550781 L 466.429688 311.089844 L 467.964844 310.230469 L 468.210938 307.757812 L 470.054688 306.886719 L 472.265625 308.058594 L 479.109375 307.867188 L 487.171875 306.8125 L 493.378906 306.210938 L 497.070312 304.863281 L 500.125 303.121094 L 504.058594 299.707031 L 508.28125 295.867188 L 512.539062 293.257812 L 514.371094 292.371094 L 516.882812 293.105469 L 516.601562 293.9375 L 515.390625 294.800781 L 512.582031 294.488281 L 511.722656 296.570312 L 509.902344 297.867188 L 508.378906 298.738281 L 508.785156 301.601562 L 506.933594 302.074219 L 505.761719 304.167969 L 504.234375 305.039062 L 502.679688 305.089844 L 501.773438 305.941406 L 500.894531 307.613281 L 499.675781 308.476562 L 497.199219 308.964844 L 497.238281 310.199219 L 498.1875 310.578125 L 500.675781 310.496094 L 502.257812 311.269531 L 502.625 312.898438 L 501.742188 314.574219 L 504.234375 314.492188 L 506.375 313.1875 L 504.75 311.1875 L 506.898438 310.292969 L 507.765625 308.207031 L 508.996094 307.757812 L 509.886719 306.492188 L 510.140625 304.839844 L 511.03125 303.578125 L 512.585938 303.523438 L 513.148438 301.863281 L 514.449219 303.460938 L 516.003906 303.40625 L 516.90625 302.550781 L 518.105469 301.277344 L 519.691406 302.042969 L 520.605469 301.597656 L 521.496094 300.332031 L 522.425781 300.296875 L 523.433594 302.316406 L 525.933594 302.632812 L 529.011719 301.699219 L 530.8125 299.984375 L 532.320312 298.695312 L 535.066406 297.355469 L 537.238281 297.273438 L 537.875 297.660156 L 537.628906 299.3125 L 536.746094 300.578125 L 530.019531 303.714844 L 525.140625 306.363281 L 518.398438 309.484375 L 512.941406 313.785156 L 507.398438 315.824219 L 501.851562 317.855469 L 494.636719 321.582031 L 487.414062 325.292969 L 481.234375 327.738281 L 475.054688 330.171875 L 468.863281 332.394531 L 466.675781 332.453125 L 465.726562 332.066406 L 466.007812 330.824219 L 468.496094 330.347656 L 470.371094 330.300781 L 480.546875 325.496094 L 490.40625 321.09375 L 495.34375 319.296875 L 496.253906 318.445312 L 496.226562 317.625 L 494.96875 317.253906 L 490.34375 319.042969 L 488.175781 319.519531 L 486.640625 320.386719 L 483.882812 322.109375 L 478.929688 323.488281 L 476.746094 323.546875 L 475.183594 323.59375 L 473.035156 324.882812 L 471.160156 324.933594 L 469.277344 324.574219 L 469 325.816406 L 467.773438 326.667969 L 464.015625 326.355469 L 463.121094 328.023438 L 461.5625 328.0625 L 458.75 328.132812 L 457.84375 329.386719 L 455.992188 330.253906 L 453.597656 321.679688 Z M 451.214844 313.109375 "/>
<path fill-rule="nonzero" fill="rgb(89.803922%, 89.803922%, 89.803922%)" fill-opacity="1" stroke-width="1.066978" stroke-linecap="butt" stroke-linejoin="round" stroke="rgb(0%, 0%, 0%)" stroke-opacity="1" stroke-miterlimit="10" d="M 381.054688 275.710938 L 377.652344 275.746094 L 376.105469 275.761719 L 373.925781 274.140625 L 371.753906 272.929688 L 369.582031 272.128906 L 368.335938 270.90625 L 367.703125 269.273438 L 366.132812 265.59375 L 364.882812 263.960938 L 364.570312 263.144531 L 364.820312 255.761719 L 365.421875 253.707031 L 364.179688 252.488281 L 362.015625 250.863281 L 361.996094 248.402344 L 361.375 247.179688 L 359.828125 245.960938 L 366.460938 242.085938 L 373.082031 238.207031 L 379.699219 234.316406 L 385.464844 237.53125 L 391.234375 240.742188 L 397.015625 243.945312 L 391.285156 253.039062 L 396.265625 256.867188 L 401.25 260.695312 L 401.914062 263.964844 L 398.871094 266.878906 L 397.964844 268.53125 L 396.445312 270.195312 L 388.878906 270.496094 L 381.3125 270.785156 Z M 381.054688 275.710938 "/>
<path fill-rule="nonzero" fill="rgb(89.803922%, 89.803922%, 89.803922%)" fill-opacity="1" stroke-width="1.066978" stroke-linecap="butt" stroke-linejoin="round" stroke="rgb(0%, 0%, 0%)" stroke-opacity="1" stroke-miterlimit="10" d="M 307.667969 205.917969 L 307.667969 207.144531 L 308.277344 207.148438 L 308.269531 209.601562 L 308.878906 209.605469 L 309.183594 210.425781 L 308.265625 210.832031 L 308.570312 211.652344 L 308.871094 212.0625 L 309.179688 212.472656 L 309.480469 212.882812 L 309.785156 214.109375 L 308.867188 214.109375 L 308.867188 214.515625 L 309.476562 214.929688 L 309.476562 215.335938 L 310.390625 215.75 L 310.082031 216.976562 L 309.777344 217.386719 L 310.386719 217.796875 L 310.382812 218.617188 L 310.6875 219.027344 L 310.6875 220.253906 L 310.074219 220.253906 L 309.765625 221.890625 L 308.539062 221.886719 L 308.828125 228.441406 L 308.824219 228.847656 L 308.808594 234.992188 L 306.660156 234.988281 L 299.191406 234.957031 L 291.722656 234.917969 L 284.257812 234.867188 L 284.886719 232.414062 L 284.644531 223.8125 L 285.871094 223.820312 L 285.933594 214.8125 L 289.601562 214.835938 L 289.59375 216.066406 L 292.042969 216.082031 L 292.371094 211.988281 L 295.121094 212.414062 L 295.425781 212.414062 L 299.394531 212.84375 L 299.390625 213.664062 L 301.222656 214.082031 L 302.160156 209.582031 L 300.03125 207.933594 L 299.113281 207.929688 L 299.121094 205.882812 L 301.257812 205.894531 Z M 307.667969 205.917969 "/>
<path fill-rule="nonzero" fill="rgb(89.803922%, 89.803922%, 89.803922%)" fill-opacity="1" stroke-width="1.066978" stroke-linecap="butt" stroke-linejoin="round" stroke="rgb(0%, 0%, 0%)" stroke-opacity="1" stroke-miterlimit="10" d="M 277.234375 195.507812 L 282.71875 195.550781 L 281.210938 193.902344 L 279.703125 191.847656 L 279.109375 190.207031 L 281.542969 190.226562 L 281.847656 190.226562 L 290.066406 190.285156 L 290.371094 190.289062 L 300.71875 190.34375 L 300.988281 198.117188 L 301.257812 205.894531 L 299.121094 205.882812 L 299.113281 207.929688 L 300.03125 207.933594 L 302.160156 209.582031 L 301.222656 214.082031 L 299.390625 213.664062 L 299.394531 212.84375 L 295.425781 212.414062 L 295.121094 212.414062 L 292.371094 211.988281 L 292.042969 216.082031 L 289.59375 216.066406 L 289.601562 214.835938 L 285.933594 214.8125 L 281.65625 214.371094 L 277.683594 214.335938 L 278.03125 209.429688 L 278.054688 206.5625 L 277.761719 205.332031 Z M 277.234375 195.507812 "/>
<path fill-rule="nonzero" fill="rgb(89.803922%, 89.803922%, 89.803922%)" fill-opacity="1" stroke-width="1.066978" stroke-linecap="butt" stroke-linejoin="round" stroke="rgb(0%, 0%, 0%)" stroke-opacity="1" stroke-miterlimit="10" d="M 401.914062 263.964844 L 401.25 260.695312 L 396.265625 256.867188 L 391.285156 253.039062 L 397.015625 243.945312 L 391.234375 240.742188 L 385.464844 237.53125 L 379.699219 234.316406 L 385.328125 230.363281 L 390.953125 226.40625 L 393.0625 223.511719 L 394.292969 223.90625 L 396.726562 222.644531 L 404.742188 226.214844 L 411.03125 226.730469 L 417.324219 227.238281 L 419.375 221.878906 L 420.300781 222.273438 L 420.609375 222.265625 L 421.519531 221.839844 L 425.859375 224.625 L 425.003906 227.917969 L 424.742188 230.382812 L 423.914062 235.316406 L 423.375 239.421875 L 425.003906 244.3125 L 424.726562 245.957031 L 425.085938 248.820312 L 425.203125 254.96875 L 424.679688 259.898438 L 424.132812 263.597656 L 419.207031 264.507812 L 419.496094 263.273438 L 418.554688 262.46875 L 417.644531 263.304688 L 417.328125 262.902344 L 415.472656 262.523438 L 415.503906 264.574219 L 409 263.039062 L 408.652344 260.582031 L 406.507812 261.4375 L 403.753906 263.117188 Z M 401.914062 263.964844 "/>
<path fill-rule="nonzero" fill="rgb(89.803922%, 89.803922%, 89.803922%)" fill-opacity="1" stroke-width="1.066978" stroke-linecap="butt" stroke-linejoin="round" stroke="rgb(0%, 0%, 0%)" stroke-opacity="1" stroke-miterlimit="10" d="M 416.183594 109.945312 L 422.582031 109.015625 L 428.980469 108.074219 L 435.375 107.128906 L 441.769531 106.171875 L 448.160156 105.210938 L 446.410156 107.289062 L 446.730469 108.097656 L 445.914062 111.789062 L 445.089844 115.070312 L 442.738281 117.164062 L 442.164062 118.398438 L 441.300781 120.050781 L 440.425781 121.296875 L 438.949219 122.550781 L 438.375 123.789062 L 438.136719 126.648438 L 439.136719 131.117188 L 439.863281 136.816406 L 440.210938 138.851562 L 440.867188 141.285156 L 439.351562 140.910156 L 437.25 141.367188 L 436.972656 142.597656 L 436.992188 143.414062 L 436.386719 143.425781 L 436.070312 142.617188 L 435.464844 142.628906 L 434.863281 142.640625 L 433.363281 143.082031 L 432.507812 145.550781 L 431.914062 145.96875 L 431 145.582031 L 430.078125 144.78125 L 428.871094 144.804688 L 428.257812 144.410156 L 428.8125 141.949219 L 428.503906 141.546875 L 425.957031 134.65625 L 418.59375 135.609375 L 411.226562 136.550781 L 410.371094 130.238281 L 409.515625 123.929688 L 408.660156 117.617188 L 407.808594 111.3125 Z M 416.183594 109.945312 "/>
<path fill-rule="nonzero" fill="rgb(89.803922%, 89.803922%, 89.803922%)" fill-opacity="1" stroke-width="1.066978" stroke-linecap="butt" stroke-linejoin="round" stroke="rgb(0%, 0%, 0%)" stroke-opacity="1" stroke-miterlimit="10" d="M 451.132812 104.324219 L 452.074219 105.929688 L 452.402344 107.144531 L 452.152344 109.191406 L 451.59375 110.835938 L 450.753906 113.304688 L 449.3125 115.785156 L 449.738281 121.082031 L 450.957031 121.867188 L 451.820312 120.214844 L 452.679688 118.5625 L 453.863281 117.714844 L 455.074219 118.09375 L 455.996094 118.886719 L 456.9375 120.496094 L 457.570312 121.703125 L 458.191406 122.503906 L 458.511719 123.3125 L 458.316406 127.398438 L 458.679688 129.835938 L 458.804688 134.734375 L 458.324219 139.644531 L 457.949219 148.640625 L 458.304688 150.675781 L 458.699219 154.34375 L 458.460938 156.800781 L 458.300781 162.527344 L 458.394531 166.203125 L 452.933594 165.929688 L 452.316406 165.535156 L 451.105469 165.566406 L 450.1875 165.179688 L 449.296875 166.019531 L 439.308594 166.652344 L 439.859375 164.1875 L 441.027344 162.121094 L 442.449219 158 L 442.695312 155.542969 L 442.054688 153.921875 L 441.980469 150.65625 L 441.910156 147.390625 L 440.621094 143.742188 L 440.894531 142.511719 L 440.867188 141.285156 L 440.210938 138.851562 L 439.863281 136.816406 L 439.136719 131.117188 L 438.136719 126.648438 L 438.375 123.789062 L 438.949219 122.550781 L 440.425781 121.296875 L 441.300781 120.050781 L 442.164062 118.398438 L 442.738281 117.164062 L 445.089844 115.070312 L 445.914062 111.789062 L 446.730469 108.097656 L 446.410156 107.289062 L 448.160156 105.210938 Z M 451.132812 104.324219 "/>
<path fill-rule="nonzero" fill="rgb(89.803922%, 89.803922%, 89.803922%)" fill-opacity="1" stroke-width="1.066978" stroke-linecap="butt" stroke-linejoin="round" stroke="rgb(0%, 0%, 0%)" stroke-opacity="1" stroke-miterlimit="10" d="M 241.820312 160.730469 L 242.394531 143.175781 L 245.425781 142.402344 L 250.855469 142.480469 L 257.175781 143.382812 L 261.703125 143.4375 L 263.1875 145.496094 L 265.015625 143.882812 L 265.332031 142.664062 L 266.542969 142.269531 L 270.464844 142.308594 L 271.679688 141.503906 L 275.316406 139.5 L 276.816406 140.328125 L 276.859375 146.453125 L 276.90625 152.578125 L 276.953125 158.707031 L 276.636719 160.339844 L 276.015625 161.96875 L 269.960938 162.113281 L 263.902344 162.253906 L 254.511719 162.546875 L 254.539062 160.503906 L 248.789062 160.425781 L 248.78125 160.835938 Z M 241.820312 160.730469 "/>
<path fill-rule="nonzero" fill="rgb(89.803922%, 89.803922%, 89.803922%)" fill-opacity="1" stroke-width="1.066978" stroke-linecap="butt" stroke-linejoin="round" stroke="rgb(0%, 0%, 0%)" stroke-opacity="1" stroke-miterlimit="10" d="M 433.476562 313.90625 L 427.839844 312.375 L 428.34375 306.203125 L 428.472656 296.757812 L 428.433594 294.703125 L 427.457031 292.257812 L 424.921875 289.433594 L 424.585938 288.210938 L 424.574219 287.386719 L 424.851562 285.742188 L 424.527344 284.925781 L 424.195312 283.703125 L 424.171875 282.46875 L 431.582031 281.371094 L 438.992188 280.261719 L 446.398438 279.140625 L 446.191406 283.660156 L 449.738281 289.738281 L 447.605469 291.429688 L 442.710938 294.617188 L 437.8125 297.800781 L 440.738281 303.898438 L 439.882812 307.613281 L 439.289062 308.855469 L 438.070312 310.113281 L 436.859375 311.78125 L 435.949219 313.035156 Z M 433.476562 313.90625 "/>
<path fill-rule="nonzero" fill="rgb(89.803922%, 89.803922%, 89.803922%)" fill-opacity="1" stroke-width="1.066978" stroke-linecap="butt" stroke-linejoin="round" stroke="rgb(0%, 0%, 0%)" stroke-opacity="1" stroke-miterlimit="10" d="M 210.691406 172.417969 L 210.390625 179.363281 L 210.089844 186.3125 L 207.246094 191.160156 L 207.226562 191.976562 L 205.652344 194.398438 L 205.003906 196.019531 L 205.292969 196.847656 L 198.585938 196.691406 L 191.882812 196.53125 L 183.363281 195.902344 L 183.070312 195.488281 L 183.226562 189.488281 L 183.386719 183.492188 L 183.542969 177.496094 L 182.332031 177.464844 L 182.496094 171.335938 L 184.3125 171.382812 L 191.1875 171.558594 L 198.0625 171.726562 L 204.9375 171.886719 L 205.230469 172.300781 Z M 210.691406 172.417969 "/>
<path fill-rule="nonzero" fill="rgb(89.803922%, 89.803922%, 89.803922%)" fill-opacity="1" stroke-width="1.066978" stroke-linecap="butt" stroke-linejoin="round" stroke="rgb(0%, 0%, 0%)" stroke-opacity="1" stroke-miterlimit="10" d="M 241.929688 193.035156 L 242.335938 186.496094 L 242.644531 186.089844 L 242.988281 183.640625 L 244.234375 181.617188 L 244.25 180.390625 L 250.328125 180.476562 L 256.402344 180.558594 L 262.480469 180.632812 L 263.023438 185.953125 L 263.929688 186.78125 L 265.136719 187.613281 L 265.121094 188.839844 L 264.800781 190.472656 L 264.796875 190.882812 L 266.261719 196.21875 L 266.550781 197.449219 L 266.8125 201.542969 L 263.148438 201.914062 L 262.847656 201.5 L 261.628906 201.484375 L 261.34375 199.84375 L 255.242188 199.769531 L 254.949219 198.949219 L 253.425781 198.929688 L 253.496094 193.609375 Z M 241.929688 193.035156 "/>
</svg>
