<?xml version="1.0" encoding="UTF-8"?>
<svg xmlns="http://www.w3.org/2000/svg" xmlns:xlink="http://www.w3.org/1999/xlink" width="648" height="360" viewBox="0 0 648 360">
<rect x="-64.8" y="-36" width="777.6" height="432" fill="rgb(100%, 100%, 100%)" fill-opacity="1"/>
<path fill-rule="nonzero" fill="rgb(85.098039%, 85.098039%, 85.098039%)" fill-opacity="1" stroke-width="1.066978" stroke-linecap="butt" stroke-linejoin="round" stroke="rgb(0%, 0%, 0%)" stroke-opacity="1" stroke-miterlimit="10" d="M 427.042969 319.78125 L 426.753906 321.019531 L 425.835938 321.859375 L 425.242188 323.511719 L 424.953125 324.75 L 424.65625 325.578125 L 423.109375 326.429688 L 422.179688 326.855469 L 421.855469 326.039062 L 423.042969 322.734375 L 424.566406 320.648438 L 425.757812 317.753906 L 426.6875 317.324219 L 427.003906 317.730469 L 426.707031 318.554688 Z M 427.042969 319.78125 "/>
<path fill-rule="nonzero" fill="rgb(85.098039%, 85.098039%, 85.098039%)" fill-opacity="1" stroke-width="1.066978" stroke-linecap="butt" stroke-linejoin="round" stroke="rgb(0%, 0%, 0%)" stroke-opacity="1" stroke-miterlimit="10" d="M 113.476562 212.445312 L 117.238281 210.132812 L 125.351562 205.933594 L 131.632812 201.25 L 133.214844 199.667969 L 134.492188 198.074219 L 136.363281 196.914062 L 137.902344 196.558594 L 139.773438 195.394531 L 143.800781 193.484375 L 146.585938 192.351562 L 148.453125 191.183594 L 149.734375 189.179688 L 152.289062 185.578125 L 152.976562 183.148438 L 154.242188 181.550781 L 155.777344 181.191406 L 160.382812 179.695312 L 162.242188 178.527344 L 163.265625 174.875 L 161.847656 171.5625 L 161.039062 168.265625 L 161.128906 165.40625 L 160.253906 164.152344 L 158.753906 163.695312 L 157.203125 164.875 L 156.949219 163.230469 L 155.1875 161.539062 L 155.25 159.496094 L 155.617188 157.464844 L 154.777344 155.394531 L 153.289062 154.53125 L 153.332031 153.304688 L 154.289062 151.699219 L 155.535156 150.515625 L 155.640625 147.25 L 155.757812 143.574219 L 156.136719 141.136719 L 158.273438 140.386719 L 164.945312 139.367188 L 174.046875 137.589844 L 181.925781 136.175781 L 185.238281 136.265625 L 187.648438 136.328125 L 195.480469 136.523438 L 198.503906 136.1875 L 199.699219 136.625 L 204.527344 136.328125 L 209.039062 136.835938 L 212.644531 137.324219 L 219.25 138.683594 L 222.257812 139.148438 L 225.820312 142.074219 L 228.492188 144.574219 L 230.589844 145.429688 L 232.699219 145.464844 L 233.578125 147.113281 L 234.8125 145.503906 L 236.34375 144.304688 L 239.984375 143.136719 L 242.394531 143.175781 L 245.425781 142.402344 L 250.855469 142.480469 L 257.175781 143.382812 L 261.703125 143.4375 L 263.1875 145.496094 L 265.015625 143.882812 L 265.332031 142.664062 L 266.542969 142.269531 L 270.464844 142.308594 L 271.679688 141.503906 L 275.316406 139.5 L 276.816406 140.328125 L 277.417969 140.332031 L 278.648438 137.488281 L 279.867188 135.863281 L 281.082031 134.648438 L 282.292969 133.84375 L 284.417969 131.820312 L 287.425781 131.839844 L 288.03125 131.4375 L 289.257812 128.179688 L 291.070312 126.558594 L 293.476562 126.574219 L 296.480469 127.40625 L 299.789062 127.421875 L 301 125.796875 L 302.511719 123.765625 L 302.820312 121.726562 L 303.132812 118.054688 L 303.445312 115.203125 L 302.257812 111.933594 L 301.972656 109.078125 L 299.886719 105.808594 L 298.699219 104.171875 L 299.003906 102.542969 L 300.207031 101.328125 L 301.105469 101.332031 L 302.597656 102.558594 L 303.792969 102.566406 L 306.199219 99.3125 L 306.507812 96.460938 L 303.527344 94.414062 L 306.824219 91.574219 L 306.226562 91.164062 L 304.738281 90.753906 L 303.84375 89.527344 L 302.953125 88.707031 L 301.757812 89.109375 L 301.15625 90.332031 L 300.855469 90.738281 L 302.34375 91.964844 L 302.03125 94.40625 L 300.832031 95.625 L 299.9375 95.214844 L 299.042969 94.800781 L 298.753906 92.355469 L 297.878906 88.6875 L 295.203125 86.636719 L 295.511719 84.601562 L 296.710938 83.386719 L 298.507812 82.171875 L 306.570312 78.132812 L 312.539062 74.488281 L 315.816406 71.644531 L 318.496094 68.800781 L 323.851562 64.734375 L 324.445312 63.105469 L 325.632812 60.664062 L 326.226562 58.628906 L 325.632812 57.410156 L 327.707031 54.15625 L 333.039062 49.675781 L 337.324219 45.601562 L 341.601562 41.527344 L 346.609375 36.628906 L 351.609375 31.730469 L 355.144531 30.085938 L 361.609375 26.386719 L 364.550781 25.148438 L 366.011719 23.511719 L 369.246094 22.265625 L 371.597656 21.839844 L 374.535156 20.59375 L 376.007812 20.578125 L 379.554688 21.761719 L 380.441406 21.75 L 385.445312 21.289062 L 391.640625 21.617188 L 397.828125 21.53125 L 406.957031 20.984375 L 416.09375 20.832031 L 422.984375 20.539062 L 429.875 20.242188 L 436.765625 19.933594 L 443.65625 19.617188 L 450.546875 19.289062 L 450.917969 22.527344 L 451.550781 24.136719 L 449.320312 29.472656 L 449.378906 31.910156 L 450.609375 33.910156 L 450.945312 35.527344 L 450.226562 42.457031 L 450.058594 47.746094 L 450.71875 50.578125 L 450.761719 52.203125 L 452.007812 54.613281 L 452.964844 57.4375 L 453.652344 61.082031 L 453.457031 65.15625 L 453.558594 69.226562 L 453.617188 71.664062 L 452.796875 74.535156 L 450.183594 77.449219 L 449.332031 79.101562 L 449.089844 81.550781 L 447.417969 86.476562 L 449.007812 90.515625 L 449.074219 93.367188 L 449.730469 95.796875 L 450.695312 98.625 L 451.066406 101.46875 L 451.132812 104.324219 L 452.074219 105.929688 L 452.402344 107.144531 L 452.152344 109.191406 L 451.59375 110.835938 L 450.753906 113.304688 L 449.3125 115.785156 L 449.738281 121.082031 L 450.957031 121.867188 L 451.820312 120.214844 L 452.679688 118.5625 L 453.863281 117.714844 L 455.074219 118.09375 L 455.996094 118.886719 L 456.9375 120.496094 L 457.570312 121.703125 L 458.191406 122.503906 L 458.511719 123.3125 L 458.316406 127.398438 L 458.679688 129.835938 L 458.804688 134.734375 L 458.324219 139.644531 L 457.949219 148.640625 L 458.304688 150.675781 L 458.699219 154.34375 L 458.460938 156.800781 L 458.300781 162.527344 L 458.394531 166.203125 L 458.480469 169.472656 L 458.886719 173.550781 L 458.625 175.191406 L 458.675781 177.238281 L 458.757812 180.507812 L 459.136719 183.359375 L 457.191406 190.773438 L 455.515625 196.957031 L 454.09375 201.082031 L 452.183594 210.546875 L 449.378906 221.261719 L 447.980469 227.027344 L 448.363281 230.296875 L 447.4375 250.300781 L 447.128906 256.972656 L 446.746094 267.234375 L 446.574219 273.1875 L 446.398438 279.140625 L 446.191406 283.660156 L 449.738281 289.738281 L 447.605469 291.429688 L 442.710938 294.617188 L 437.8125 297.800781 L 440.738281 303.898438 L 439.882812 307.613281 L 439.289062 308.855469 L 438.070312 310.113281 L 436.859375 311.78125 L 435.949219 313.035156 L 433.476562 313.90625 L 432.566406 315.15625 L 432.894531 315.972656 L 432.941406 318.433594 L 433.269531 319.25 L 428.234375 316.882812 L 428.285156 319.347656 L 428.914062 319.746094 L 427.535156 312.789062 L 427.839844 312.375 L 428.34375 306.203125 L 423 303.15625 L 417.660156 300.101562 L 412.328125 297.042969 L 409.828125 295.851562 L 402.316406 291.859375 L 395.960938 287.980469 L 389.609375 284.09375 L 383.269531 280.199219 L 382.632812 278.566406 L 381.6875 276.933594 L 381.054688 275.710938 L 377.652344 275.746094 L 376.105469 275.761719 L 373.925781 274.140625 L 371.753906 272.929688 L 369.582031 272.128906 L 368.335938 270.90625 L 367.703125 269.273438 L 366.132812 265.59375 L 364.882812 263.960938 L 364.570312 263.144531 L 364.820312 255.761719 L 365.421875 253.707031 L 364.179688 252.488281 L 362.015625 250.863281 L 361.996094 248.402344 L 361.375 247.179688 L 359.828125 245.960938 L 358.59375 245.558594 L 355.824219 245.164062 L 354.898438 244.761719 L 353.664062 243.539062 L 352.71875 239.445312 L 351.175781 237.816406 L 349.011719 234.957031 L 346.558594 234.96875 L 342.566406 234.984375 L 335.816406 235.003906 L 329.0625 235.011719 L 322.3125 235.015625 L 315.558594 235.007812 L 308.808594 234.992188 L 306.660156 234.988281 L 299.191406 234.957031 L 291.722656 234.917969 L 284.257812 234.867188 L 277.605469 234.953125 L 270.957031 235.027344 L 264.304688 235.09375 L 262.460938 235.074219 L 255.589844 234.90625 L 248.714844 234.734375 L 241.84375 234.550781 L 234.96875 234.359375 L 228.097656 234.160156 L 220.121094 234.011719 L 214.132812 233.996094 L 208.148438 233.972656 L 202.164062 233.941406 L 196.175781 233.902344 L 190.664062 233.359375 L 184.097656 233.191406 L 177.535156 233.019531 L 170.96875 232.835938 L 164.402344 232.644531 L 157.839844 232.445312 L 150.476562 232.210938 L 144.527344 232.015625 L 138.574219 231.8125 L 132.625 231.605469 L 126.675781 231.390625 L 120.726562 231.167969 L 113.367188 230.882812 L 113.402344 224.734375 L 113.441406 218.589844 Z M 113.476562 212.445312 "/>
<path fill-rule="nonzero" fill="rgb(85.098039%, 85.098039%, 85.098039%)" fill-opacity="1" stroke-width="1.066978" stroke-linecap="butt" stroke-linejoin="round" stroke="rgb(0%, 0%, 0%)" stroke-opacity="1" stroke-miterlimit="10" d="M 408.382812 343.113281 L 412.285156 332.777344 L 418.179688 330.214844 L 420.121094 333.878906 L 418.898438 335.542969 L 416.4375 338.050781 L 414.589844 339.726562 L 413.363281 341.390625 L 410.878906 342.664062 L 408.382812 343.113281 L 407.417969 341.484375 L 407.71875 340.660156 L 409.269531 339.8125 L 410.183594 338.15625 L 410.773438 336.089844 L 411.367188 334.027344 L 412.292969 333.1875 L 413.507812 331.113281 L 414.132812 331.105469 L 415.375 330.671875 L 411.882812 336.894531 Z M 408.382812 343.113281 "/>
<path fill-rule="nonzero" fill="rgb(85.098039%, 85.098039%, 85.098039%)" fill-opacity="1" stroke-width="1.066978" stroke-linecap="butt" stroke-linejoin="round" stroke="rgb(0%, 0%, 0%)" stroke-opacity="1" stroke-miterlimit="10" d="M 504.75 311.1875 L 506.898438 310.292969 L 507.765625 308.207031 L 508.996094 307.757812 L 509.886719 306.492188 L 510.140625 304.839844 L 511.03125 303.578125 L 512.585938 303.523438 L 513.148438 301.863281 L 514.449219 303.460938 L 516.003906 303.40625 L 516.90625 302.550781 L 518.105469 301.277344 L 519.691406 302.042969 L 520.605469 301.597656 L 521.496094 300.332031 L 522.425781 300.296875 L 523.433594 302.316406 L 525.933594 302.632812 L 529.011719 301.699219 L 530.8125 299.984375 L 532.320312 298.695312 L 535.066406 297.355469 L 537.238281 297.273438 L 537.875 297.660156 L 537.628906 299.3125 L 536.746094 300.578125 L 530.019531 303.714844 L 525.140625 306.363281 L 518.398438 309.484375 L 512.941406 313.785156 L 507.398438 315.824219 L 501.851562 317.855469 L 494.636719 321.582031 L 487.414062 325.292969 L 481.234375 327.738281 L 475.054688 330.171875 L 468.863281 332.394531 L 466.675781 332.453125 L 465.726562 332.066406 L 466.007812 330.824219 L 468.496094 330.347656 L 470.371094 330.300781 L 480.546875 325.496094 L 490.40625 321.09375 L 495.34375 319.296875 L 496.253906 318.445312 L 496.226562 317.625 L 494.96875 317.253906 L 490.34375 319.042969 L 488.175781 319.519531 L 486.640625 320.386719 L 483.882812 322.109375 L 478.929688 323.488281 L 476.746094 323.546875 L 475.183594 323.59375 L 473.035156 324.882812 L 471.160156 324.933594 L 469.277344 324.574219 L 469 325.816406 L 467.773438 326.667969 L 464.015625 326.355469 L 463.121094 328.023438 L 461.5625 328.0625 L 458.75 328.132812 L 457.84375 329.386719 L 455.992188 330.253906 L 452.574219 331.15625 L 450.691406 330.789062 L 448.523438 331.664062 L 442.308594 333.445312 L 440.433594 333.484375 L 438.921875 335.984375 L 436.125 336.863281 L 433.625 336.914062 L 431.453125 337.777344 L 429.894531 338.21875 L 428.324219 337.839844 L 428.933594 337.003906 L 430.792969 336.148438 L 432.964844 335.28125 L 434.832031 334.832031 L 435.433594 333.589844 L 435.417969 332.765625 L 434.453125 331.554688 L 432.589844 332 L 430.714844 332.039062 L 427.621094 333.742188 L 426.410156 335.820312 L 425.804688 337.0625 L 423.28125 335.878906 L 423.253906 334.234375 L 422.917969 333.007812 L 422.261719 331.375 L 421.929688 330.148438 L 422.539062 329.316406 L 423.78125 328.882812 L 425.007812 327.625 L 426.222656 325.960938 L 428.027344 322.230469 L 429.28125 322.617188 L 430.546875 323.414062 L 431.472656 322.984375 L 432.382812 321.734375 L 433.285156 320.070312 L 433.625 321.296875 L 435.511719 322.082031 L 436.125 321.65625 L 436.40625 320.007812 L 437.652344 319.984375 L 438.265625 319.558594 L 438.222656 317.503906 L 439.140625 316.664062 L 440.394531 317.046875 L 441.367188 318.671875 L 441.667969 318.253906 L 441.652344 317.433594 L 441.3125 316.207031 L 443.136719 314.113281 L 446.828125 311.976562 L 448.394531 312.351562 L 449.6875 314.378906 L 451.214844 313.109375 L 450.554688 311.480469 L 451.148438 310.234375 L 452.074219 309.804688 L 454.609375 311.796875 L 456.167969 311.757812 L 457.0625 310.09375 L 458.304688 310.0625 L 464.570312 311.550781 L 466.429688 311.089844 L 467.964844 310.230469 L 468.210938 307.757812 L 470.054688 306.886719 L 472.265625 308.058594 L 479.109375 307.867188 L 487.171875 306.8125 L 493.378906 306.210938 L 497.070312 304.863281 L 500.125 303.121094 L 504.058594 299.707031 L 508.28125 295.867188 L 512.539062 293.257812 L 514.371094 292.371094 L 516.882812 293.105469 L 516.601562 293.9375 L 515.390625 294.800781 L 512.582031 294.488281 L 511.722656 296.570312 L 509.902344 297.867188 L 508.378906 298.738281 L 508.785156 301.601562 L 506.933594 302.074219 L 505.761719 304.167969 L 504.234375 305.039062 L 502.679688 305.089844 L 501.773438 305.941406 L 500.894531 307.613281 L 499.675781 308.476562 L 497.199219 308.964844 L 497.238281 310.199219 L 498.1875 310.578125 L 500.675781 310.496094 L 502.257812 311.269531 L 502.625 312.898438 L 501.742188 314.574219 L 504.234375 314.492188 L 506.375 313.1875 Z M 504.75 311.1875 "/>
</svg>
