<?xml version="1.0" encoding="UTF-8"?>
<svg xmlns="http://www.w3.org/2000/svg" xmlns:xlink="http://www.w3.org/1999/xlink" width="648" height="360" viewBox="0 0 648 360">
<rect x="-64.8" y="-36" width="777.6" height="432" fill="rgb(100%, 100%, 100%)" fill-opacity="1"/>
<path fill-rule="nonzero" fill="rgb(85.098039%, 85.098039%, 85.098039%)" fill-opacity="1" stroke-width="1.066978" stroke-linecap="butt" stroke-linejoin="round" stroke="rgb(0%, 0%, 0%)" stroke-opacity="1" stroke-miterlimit="10" d="M 465.390625 320.4375 L 464.960938 321.679688 L 463.679688 322.507812 L 462.824219 324.164062 L 462.394531 325.410156 L 461.96875 326.238281 L 459.828125 327.066406 L 458.546875 327.480469 L 458.117188 326.652344 L 459.828125 323.335938 L 461.96875 321.265625 L 463.679688 318.367188 L 464.960938 317.953125 L 465.390625 318.367188 L 464.960938 319.195312 Z M 465.390625 320.4375 "/>
<path fill-rule="nonzero" fill="rgb(85.098039%, 85.098039%, 85.098039%)" fill-opacity="1" stroke-width="1.066978" stroke-linecap="butt" stroke-linejoin="round" stroke="rgb(0%, 0%, 0%)" stroke-opacity="1" stroke-miterlimit="10" d="M 29.453125 215.214844 L 34.585938 212.726562 L 45.710938 208.171875 L 54.265625 203.199219 L 56.40625 201.542969 L 58.117188 199.886719 L 60.683594 198.640625 L 62.824219 198.226562 L 65.390625 196.984375 L 70.953125 194.914062 L 74.800781 193.671875 L 77.367188 192.429688 L 79.078125 190.355469 L 82.503906 186.628906 L 83.359375 184.144531 L 85.070312 182.484375 L 87.207031 182.070312 L 93.625 180.414062 L 96.191406 179.171875 L 97.476562 175.441406 L 95.335938 172.128906 L 94.054688 168.816406 L 94.054688 165.914062 L 92.769531 164.671875 L 90.632812 164.257812 L 88.492188 165.5 L 88.0625 163.84375 L 85.496094 162.1875 L 85.496094 160.117188 L 85.925781 158.042969 L 84.640625 155.972656 L 82.503906 155.144531 L 82.503906 153.902344 L 83.785156 152.242188 L 85.496094 151 L 85.496094 143.957031 L 85.925781 141.472656 L 88.917969 140.644531 L 98.332031 139.402344 L 111.164062 137.332031 L 122.289062 135.671875 L 141.539062 135.671875 L 145.816406 135.257812 L 147.53125 135.671875 L 154.375 135.257812 L 160.792969 135.671875 L 165.925781 136.085938 L 175.335938 137.332031 L 179.613281 137.746094 L 184.75 140.644531 L 188.597656 143.128906 L 191.59375 143.957031 L 194.589844 143.957031 L 195.871094 145.617188 L 197.582031 143.957031 L 199.722656 142.714844 L 204.855469 141.472656 L 208.277344 141.472656 L 212.554688 140.644531 L 220.257812 140.644531 L 229.242188 141.472656 L 235.65625 141.472656 L 237.796875 143.542969 L 240.363281 141.886719 L 240.792969 140.644531 L 242.503906 140.230469 L 248.0625 140.230469 L 249.773438 139.402344 L 254.910156 137.332031 L 257.046875 138.160156 L 257.902344 138.160156 L 259.613281 135.257812 L 261.324219 133.601562 L 263.039062 132.359375 L 264.75 131.53125 L 267.742188 129.460938 L 272.019531 129.460938 L 272.878906 129.042969 L 273.730469 127.386719 L 274.589844 125.730469 L 277.15625 124.074219 L 280.578125 124.074219 L 284.855469 124.902344 L 289.5625 124.902344 L 291.273438 123.246094 L 293.410156 121.175781 L 293.839844 119.101562 L 294.265625 115.375 L 294.695312 112.472656 L 292.984375 109.160156 L 292.554688 106.261719 L 289.5625 102.945312 L 287.851562 101.289062 L 288.277344 99.632812 L 289.988281 98.390625 L 291.273438 98.390625 L 293.410156 99.632812 L 295.121094 99.632812 L 298.546875 96.316406 L 298.972656 93.417969 L 294.695312 91.347656 L 299.402344 88.445312 L 298.546875 88.03125 L 296.40625 87.617188 L 295.121094 86.375 L 293.839844 85.546875 L 292.128906 85.960938 L 291.273438 87.203125 L 290.84375 87.617188 L 292.984375 88.859375 L 292.554688 91.347656 L 290.84375 92.589844 L 289.5625 92.175781 L 288.277344 91.761719 L 287.851562 89.273438 L 286.566406 85.546875 L 282.714844 83.476562 L 283.144531 81.402344 L 284.855469 80.160156 L 287.421875 78.917969 L 298.972656 74.777344 L 307.527344 71.046875 L 312.234375 68.148438 L 316.085938 65.246094 L 323.785156 61.105469 L 324.640625 59.449219 L 326.351562 56.960938 L 327.207031 54.890625 L 326.351562 53.648438 L 329.347656 50.332031 L 337.046875 45.777344 L 349.453125 37.492188 L 364 27.550781 L 369.132812 25.890625 L 378.546875 22.164062 L 382.824219 20.921875 L 384.960938 19.261719 L 389.667969 18.019531 L 393.089844 17.605469 L 397.367188 16.363281 L 399.507812 16.363281 L 404.640625 17.605469 L 405.925781 17.605469 L 413.199219 17.191406 L 422.183594 17.605469 L 431.164062 17.605469 L 444.425781 17.191406 L 457.691406 17.191406 L 507.742188 16.363281 L 508.171875 19.679688 L 509.027344 21.335938 L 505.605469 26.71875 L 505.605469 29.207031 L 507.316406 31.277344 L 507.742188 32.933594 L 506.460938 39.976562 L 506.03125 45.363281 L 506.886719 48.261719 L 506.886719 49.917969 L 508.597656 52.40625 L 509.882812 55.304688 L 510.738281 59.035156 L 510.308594 63.175781 L 510.308594 69.804688 L 509.027344 72.703125 L 505.175781 75.605469 L 503.894531 77.261719 L 503.464844 79.746094 L 500.898438 84.71875 L 503.039062 88.859375 L 503.039062 91.761719 L 503.894531 94.246094 L 505.175781 97.144531 L 505.605469 100.046875 L 505.605469 102.945312 L 506.886719 104.601562 L 507.316406 105.847656 L 506.886719 107.917969 L 506.03125 109.574219 L 504.75 112.058594 L 502.609375 114.546875 L 503.039062 119.929688 L 504.75 120.757812 L 506.03125 119.101562 L 507.316406 117.445312 L 509.027344 116.617188 L 510.738281 117.03125 L 512.019531 117.859375 L 513.304688 119.515625 L 514.160156 120.757812 L 515.015625 121.589844 L 515.445312 122.417969 L 515.015625 126.558594 L 515.445312 129.042969 L 515.445312 134.015625 L 514.589844 138.988281 L 513.734375 148.101562 L 514.160156 150.171875 L 514.589844 153.902344 L 514.160156 156.386719 L 513.734375 162.1875 L 513.734375 169.230469 L 514.160156 173.371094 L 513.734375 175.027344 L 513.734375 180.414062 L 514.160156 183.3125 L 511.164062 190.769531 L 508.597656 196.984375 L 506.460938 201.128906 L 503.464844 210.65625 L 499.1875 221.425781 L 497.046875 227.226562 L 497.476562 230.539062 L 494.910156 257.46875 L 494.054688 267.824219 L 493.199219 279.839844 L 492.769531 284.394531 L 497.476562 290.609375 L 494.480469 292.265625 L 480.792969 298.480469 L 484.640625 304.695312 L 483.359375 308.421875 L 482.503906 309.667969 L 480.792969 310.910156 L 479.082031 312.566406 L 477.796875 313.808594 L 474.375 314.636719 L 473.089844 315.878906 L 473.519531 316.707031 L 473.519531 319.195312 L 473.945312 320.023438 L 467.101562 317.539062 L 467.101562 320.023438 L 467.957031 320.4375 L 466.246094 313.394531 L 466.675781 312.980469 L 467.527344 306.765625 L 445.710938 297.238281 L 442.289062 295.996094 L 432.023438 291.851562 L 405.925781 279.839844 L 405.070312 278.183594 L 403.785156 276.523438 L 402.929688 275.28125 L 396.085938 275.28125 L 393.089844 273.625 L 390.097656 272.382812 L 387.101562 271.554688 L 385.390625 270.3125 L 384.535156 268.652344 L 382.394531 264.925781 L 380.683594 263.269531 L 380.257812 262.441406 L 380.683594 254.984375 L 381.539062 252.910156 L 379.828125 251.667969 L 376.835938 250.011719 L 376.835938 247.527344 L 375.976562 246.285156 L 373.839844 245.039062 L 372.128906 244.625 L 368.277344 244.210938 L 366.996094 243.796875 L 365.285156 242.554688 L 364 238.414062 L 361.859375 236.753906 L 358.867188 233.855469 L 268.597656 233.855469 L 240.792969 234.269531 L 238.222656 234.269531 L 190.308594 233.855469 L 179.1875 233.855469 L 145.816406 234.269531 L 138.117188 233.855469 L 30.308594 233.855469 Z M 29.453125 215.214844 "/>
<path fill-rule="nonzero" fill="rgb(85.098039%, 85.098039%, 85.098039%)" fill-opacity="1" stroke-width="1.066978" stroke-linecap="butt" stroke-linejoin="round" stroke="rgb(0%, 0%, 0%)" stroke-opacity="1" stroke-miterlimit="10" d="M 439.292969 343.636719 L 444.855469 333.28125 L 452.984375 330.792969 L 455.550781 334.523438 L 453.839844 336.179688 L 450.417969 338.664062 L 447.851562 340.320312 L 446.140625 341.980469 L 442.714844 343.222656 L 439.292969 343.636719 L 438.011719 341.980469 L 438.4375 341.152344 L 440.578125 340.320312 L 441.859375 338.664062 L 443.570312 334.523438 L 444.855469 333.695312 L 446.566406 331.621094 L 447.421875 331.621094 L 449.132812 331.207031 Z M 439.292969 343.636719 "/>
<path fill-rule="nonzero" fill="rgb(85.098039%, 85.098039%, 85.098039%)" fill-opacity="1" stroke-width="1.066978" stroke-linecap="butt" stroke-linejoin="round" stroke="rgb(0%, 0%, 0%)" stroke-opacity="1" stroke-miterlimit="10" d="M 572.34375 313.808594 L 575.335938 312.980469 L 576.621094 310.910156 L 578.332031 310.496094 L 579.613281 309.253906 L 580.042969 307.59375 L 581.324219 306.351562 L 583.464844 306.351562 L 584.320312 304.695312 L 586.03125 306.351562 L 588.171875 306.351562 L 589.453125 305.523438 L 591.164062 304.28125 L 593.304688 305.109375 L 594.589844 304.695312 L 595.871094 303.453125 L 597.15625 303.453125 L 598.4375 305.523438 L 601.859375 305.9375 L 606.140625 305.109375 L 608.707031 303.453125 L 610.84375 302.210938 L 614.695312 300.964844 L 617.691406 300.964844 L 618.546875 301.382812 L 618.117188 303.039062 L 616.835938 304.28125 L 607.421875 307.179688 L 600.578125 309.667969 L 591.164062 312.566406 L 583.464844 316.707031 L 568.0625 320.4375 L 547.957031 327.480469 L 530.84375 332.035156 L 522.289062 334.109375 L 519.292969 334.109375 L 518.011719 333.695312 L 518.4375 332.453125 L 521.859375 332.035156 L 524.429688 332.035156 L 538.546875 327.480469 L 552.234375 323.335938 L 559.082031 321.679688 L 560.363281 320.851562 L 560.363281 320.023438 L 558.652344 319.609375 L 552.234375 321.265625 L 549.242188 321.679688 L 547.101562 322.507812 L 543.25 324.164062 L 536.40625 325.410156 L 531.273438 325.410156 L 528.277344 326.652344 L 525.710938 326.652344 L 523.144531 326.238281 L 522.714844 327.480469 L 521.003906 328.308594 L 515.871094 327.894531 L 514.589844 329.550781 L 508.597656 329.550781 L 507.316406 330.792969 L 504.75 331.621094 L 500.042969 332.453125 L 497.476562 332.035156 L 494.480469 332.867188 L 485.925781 334.523438 L 483.359375 334.523438 L 481.21875 337.007812 L 477.367188 337.835938 L 473.945312 337.835938 L 470.953125 338.664062 L 468.8125 339.078125 L 466.675781 338.664062 L 467.527344 337.835938 L 470.097656 337.007812 L 473.089844 336.179688 L 475.65625 335.765625 L 476.511719 334.523438 L 476.511719 333.695312 L 475.230469 332.453125 L 472.664062 332.867188 L 470.097656 332.867188 L 467.957031 333.695312 L 465.820312 334.523438 L 464.105469 336.59375 L 463.25 337.835938 L 459.828125 336.59375 L 459.828125 334.9375 L 459.402344 333.695312 L 458.546875 332.035156 L 458.117188 330.792969 L 458.972656 329.964844 L 460.683594 329.550781 L 462.394531 328.308594 L 464.105469 326.652344 L 466.675781 322.921875 L 468.382812 323.335938 L 470.097656 324.164062 L 471.378906 323.75 L 472.664062 322.507812 L 473.945312 320.851562 L 474.375 322.09375 L 476.941406 322.921875 L 477.796875 322.507812 L 478.222656 320.851562 L 479.9375 320.851562 L 480.792969 320.4375 L 480.792969 318.367188 L 482.074219 317.539062 L 483.785156 317.953125 L 485.070312 319.609375 L 485.496094 319.195312 L 485.496094 318.367188 L 485.070312 317.125 L 487.636719 315.050781 L 492.769531 312.980469 L 494.910156 313.394531 L 496.621094 315.464844 L 498.757812 314.222656 L 497.902344 312.566406 L 498.757812 311.324219 L 500.042969 310.910156 L 503.464844 312.980469 L 505.605469 312.980469 L 506.886719 311.324219 L 508.597656 311.324219 L 517.15625 312.980469 L 519.722656 312.566406 L 521.859375 311.738281 L 522.289062 309.253906 L 524.855469 308.421875 L 527.851562 309.667969 L 537.261719 309.667969 L 548.386719 308.839844 L 556.941406 308.421875 L 562.074219 307.179688 L 566.351562 305.523438 L 571.914062 302.210938 L 577.902344 298.480469 L 583.894531 295.996094 L 586.460938 295.167969 L 589.882812 295.996094 L 589.453125 296.824219 L 587.742188 297.652344 L 583.894531 297.238281 L 582.609375 299.308594 L 580.042969 300.550781 L 577.902344 301.382812 L 578.332031 304.28125 L 575.765625 304.695312 L 574.054688 306.765625 L 571.914062 307.59375 L 569.773438 307.59375 L 568.492188 308.421875 L 567.207031 310.082031 L 565.496094 310.910156 L 562.074219 311.324219 L 562.074219 312.566406 L 563.359375 312.980469 L 566.78125 312.980469 L 568.917969 313.808594 L 569.347656 315.464844 L 568.0625 317.125 L 571.488281 317.125 L 574.480469 315.878906 Z M 572.34375 313.808594 "/>
</svg>
